<!-- Generated by IcoMoon.io -->
<svg version="1.1" xmlns="http://www.w3.org/2000/svg" width="24" height="24" viewBox="0 0 24 24">
<title>about</title>
<path d="M12 17c0.552 0 1-0.451 1-0.991v-4.018c0-0.547-0.444-0.991-1-0.991v0c-0.552 0-1 0.451-1 0.991v4.018c0 0.547 0.444 0.991 1 0.991v0zM12 2c-5.52 0-10 4.48-10 10s4.48 10 10 10c5.52 0 10-4.48 10-10s-4.48-10-10-10v0zM12 20c-4.41 0-8-3.59-8-8s3.59-8 8-8c4.41 0 8 3.59 8 8s-3.59 8-8 8v0zM12 9c0.552 0 1-0.444 1-1v0c0-0.552-0.444-1-1-1v0c-0.552 0-1 0.444-1 1v0c0 0.552 0.444 1 1 1v0z"></path>
</svg>
