<!-- Generated by IcoMoon.io -->
<svg version="1.1" xmlns="http://www.w3.org/2000/svg" width="24" height="24" viewBox="0 0 24 24">
<title>add-friend</title>
<path d="M18 5h-1.009c-0.54 0-0.991 0.448-0.991 1 0 0.556 0.444 1 0.991 1h1.009v1.009c0 0.54 0.448 0.991 1 0.991 0.556 0 1-0.444 1-0.991v-1.009h1.009c0.54 0 0.991-0.448 0.991-1 0-0.556-0.444-1-0.991-1h-1.009v-1.009c0-0.54-0.448-0.991-1-0.991-0.556 0-1 0.444-1 0.991v1.009zM9 10c0 1.657 1.343 3 3 3s3-1.343 3-3c0-1.657-1.343-3-3-3s-3 1.343-3 3zM21 11c-0.553 0-1 0.448-1 1 0 2.034-0.77 3.888-2.025 5.301-0.258-1.861-4.041-2.801-5.975-2.801s-5.717 0.94-5.975 2.801c-1.255-1.413-2.025-3.267-2.025-5.301 0-4.411 3.589-8 8-8 0.552 0 1-0.448 1-1s-0.448-1-1-1c-5.514 0-10 4.486-10 10s4.486 10 10 10c5.514 0 10-4.486 10-10 0-0.552-0.447-1-1-1z"></path>
</svg>
