<!-- Generated by IcoMoon.io -->
<svg version="1.1" xmlns="http://www.w3.org/2000/svg" width="24" height="24" viewBox="0 0 24 24">
<title>add-event</title>
<path d="M18 4v-1c0-0.552-0.444-1-1-1-0.552 0-1 0.444-1 1v1h-8v-1c0-0.552-0.444-1-1-1-0.552 0-1 0.444-1 1v1h-1c-1.11 0-1.99 0.9-1.99 2l-0.010 14c0 1.1 0.89 2 2 2h14c1.1 0 2-0.9 2-2v-14c0-1.1-0.9-2-2-2h-1zM19 20h-14v-11h14v11zM11 13h-1.009c-0.54 0-0.991 0.448-0.991 1 0 0.556 0.444 1 0.991 1h1.009v1.009c0 0.54 0.448 0.991 1 0.991 0.556 0 1-0.444 1-0.991v-1.009h1.009c0.54 0 0.991-0.448 0.991-1 0-0.556-0.444-1-0.991-1h-1.009v-1.009c0-0.54-0.448-0.991-1-0.991-0.556 0-1 0.444-1 0.991v1.009z"></path>
</svg>
