<!-- Generated by IcoMoon.io -->
<svg version="1.1" xmlns="http://www.w3.org/2000/svg" width="24" height="24" viewBox="0 0 24 24">
<title>add-to-favorites-off</title>
<path d="M11.999 2.25c-0.286 0-0.546 0.162-0.672 0.418l-2.471 5.005-5.525 0.804c-0.283 0.041-0.517 0.239-0.605 0.511-0.088 0.271-0.015 0.569 0.19 0.768l3.998 3.896-0.944 5.502c-0.049 0.282 0.067 0.567 0.298 0.734 0.131 0.096 0.285 0.144 0.439 0.144 0.12 0 0.241-0.029 0.351-0.087l4.941-2.597 4.941 2.597c0.11 0.058 0.23 0.086 0.349 0.086 0.155 0 0.311-0.048 0.44-0.143 0.232-0.167 0.347-0.452 0.299-0.734l-0.943-5.502 3.997-3.896c0.204-0.199 0.278-0.497 0.189-0.769-0.087-0.271-0.322-0.469-0.604-0.51l-5.525-0.804-2.471-5.005c-0.126-0.256-0.386-0.418-0.672-0.418zM11.999 5.26l1.981 4.012 4.43 0.645-3.205 3.124 0.155 0.907 0.601 3.505-3.962-2.082-3.962 2.082 0.602-3.505 0.155-0.907-3.205-3.124 4.429-0.645 1.981-4.012z"></path>
</svg>
