<!-- Generated by IcoMoon.io -->
<svg version="1.1" xmlns="http://www.w3.org/2000/svg" width="24" height="24" viewBox="0 0 24 24">
<title>add-to-cart</title>
<path d="M16.255 8h-8.509l1.694-4.659c0.188-0.519-0.079-1.092-0.598-1.281-0.516-0.188-1.092 0.079-1.282 0.598l-1.942 5.341h-1.618c-0.599 0-1.167 0.269-1.547 0.732s-0.531 1.073-0.414 1.66l2 10.001c0.187 0.934 1.008 1.607 1.961 1.607h12c0.953 0 1.775-0.673 1.961-1.607l2-10.001c0.118-0.587-0.034-1.197-0.414-1.66s-0.947-0.732-1.547-0.732h-1.618l-1.942-5.341c-0.188-0.519-0.759-0.787-1.281-0.598-0.518 0.189-0.787 0.762-0.597 1.281l1.694 4.659zM4 9.999h16l-2 10h-12l-2-10zM11 14h-1.009c-0.54 0-0.991 0.448-0.991 1 0 0.556 0.444 1 0.991 1h1.009v1.009c0 0.54 0.448 0.991 1 0.991 0.556 0 1-0.444 1-0.991v-1.009h1.009c0.54 0 0.991-0.448 0.991-1 0-0.556-0.444-1-0.991-1h-1.009v-1.009c0-0.54-0.448-0.991-1-0.991-0.556 0-1 0.444-1 0.991v1.009z"></path>
</svg>
