<!-- Generated by IcoMoon.io -->
<svg version="1.1" xmlns="http://www.w3.org/2000/svg" width="24" height="24" viewBox="0 0 24 24">
<title>add-to-favorites-on</title>
<path d="M16.94 19.945l-4.941-2.597-4.941 2.597c-0.253 0.133-0.558 0.113-0.79-0.057-0.231-0.167-0.347-0.452-0.298-0.734l0.944-5.502-3.998-3.896c-0.205-0.199-0.278-0.497-0.19-0.768s0.322-0.47 0.605-0.511l5.525-0.804 2.471-5.005c0.126-0.256 0.386-0.418 0.672-0.418s0.546 0.162 0.672 0.418l2.471 5.005 5.525 0.804c0.282 0.041 0.517 0.239 0.604 0.51 0.089 0.272 0.015 0.57-0.189 0.769l-3.997 3.896 0.943 5.502c0.048 0.282-0.067 0.567-0.299 0.734-0.129 0.095-0.285 0.143-0.44 0.143-0.119 0-0.239-0.028-0.349-0.086z"></path>
</svg>
