<svg width="64" height="66" viewBox="0 0 64 66" xmlns="http://www.w3.org/2000/svg">
<title>attach-media</title>
<path d="M12.6667 19.4479C12.6667 16.1006 15.3631 13.4053 18.6667 13.4053H45.3334C48.6371 13.4053 51.3334 16.1006 51.3334 19.4479V30.8103C52.7479 31.2069 54.0895 31.7794 55.3334 32.5027V19.4479C55.3334 13.9116 50.8663 9.40527 45.3334 9.40527H18.6667C13.1339 9.40527 8.66675 13.9116 8.66675 19.4479V40.8947V40.8951V46.2568C8.66675 51.7932 13.1339 56.2995 18.6667 56.2995H31.6462C30.9313 55.0551 30.3651 53.7136 29.9718 52.2995H18.6667C15.3631 52.2995 12.6667 49.6041 12.6667 46.2568V41.7202L22.7369 31.5964C23.6569 30.7114 24.5548 30.3755 25.3334 30.3755C26.112 30.3755 27.01 30.7114 27.9299 31.5963L33.0808 36.7746C33.9098 35.7242 34.8568 34.7721 35.9017 33.9387L30.7514 28.7609C30.7423 28.7518 30.7332 28.7428 30.724 28.7339C29.2161 27.2752 27.3597 26.3755 25.3334 26.3755C23.3071 26.3755 21.4507 27.2752 19.9428 28.7339C19.9336 28.7428 19.9245 28.7518 19.9154 28.7609L12.6667 36.0483V19.4479ZM40.0001 20.1288C38.8955 20.1288 38.0001 21.0243 38.0001 22.1288C38.0001 23.2334 38.8955 24.1288 40.0001 24.1288H40.0268C41.1313 24.1288 42.0268 23.2334 42.0268 22.1288C42.0268 21.0243 41.1313 20.1288 40.0268 20.1288H40.0001ZM46.6667 36.5279C40.6016 36.5279 35.6667 41.4738 35.6667 47.5973C35.6667 53.7207 40.6016 58.6666 46.6667 58.6666C52.7319 58.6666 57.6667 53.7207 57.6667 47.5973C57.6667 41.4738 52.7319 36.5279 46.6667 36.5279ZM31.6667 47.5973C31.6667 39.2847 38.3725 32.5279 46.6667 32.5279C54.961 32.5279 61.6667 39.2847 61.6667 47.5973C61.6667 55.9098 54.961 62.6666 46.6667 62.6666C38.3725 62.6666 31.6667 55.9098 31.6667 47.5973ZM48.6667 43.2415C48.6667 42.1369 47.7712 41.2415 46.6667 41.2415C45.5621 41.2415 44.6667 42.1369 44.6667 43.2415V45.5979H42.3333C41.2288 45.5979 40.3333 46.4933 40.3333 47.5979C40.3333 48.7025 41.2288 49.5979 42.3333 49.5979H44.6667V51.9543C44.6667 53.0589 45.5621 53.9543 46.6667 53.9543C47.7712 53.9543 48.6667 53.0589 48.6667 51.9543V49.5979H51C52.1046 49.5979 53 48.7025 53 47.5979C53 46.4933 52.1046 45.5979 51 45.5979H48.6667V43.2415Z"/>
</svg>
