<!-- Generated by IcoMoon.io -->
<svg version="1.1" xmlns="http://www.w3.org/2000/svg" width="24" height="24" viewBox="0 0 24 24">
<title>books</title>
<path d="M17.5 4.5c-1.95 0-4.050 0.4-5.5 1.5-1.45-1.1-3.55-1.5-5.5-1.5s-4.050 0.4-5.5 1.5v14.65c0 0.25 0.25 0.5 0.5 0.5 0.1 0 0.15-0.050 0.25-0.050 1.35-0.65 3.3-1.1 4.75-1.1 1.95 0 4.050 0.4 5.5 1.5 1.35-0.85 3.8-1.5 5.5-1.5 1.65 0 3.35 0.3 4.75 1.050 0.1 0.050 0.15 0.050 0.25 0.050 0.25 0 0.5-0.25 0.5-0.5v-14.6c-0.6-0.45-1.25-0.75-2-1-1.11-0.35-2.33-0.5-3.5-0.5zM21 18.5c-1.1-0.35-2.3-0.5-3.5-0.5-1.7 0-4.15 0.65-5.5 1.5v-11.5c1.35-0.85 3.8-1.5 5.5-1.5 1.2 0 2.4 0.15 3.5 0.5v11.5z"></path>
</svg>
