<!-- Generated by IcoMoon.io -->
<svg version="1.1" xmlns="http://www.w3.org/2000/svg" width="24" height="24" viewBox="0 0 24 24">
<title>cam-switch</title>
<path d="M16.5 15.516l2.484-2.531h-1.969q0-2.063-1.477-3.516t-3.539-1.453q-1.219 0-2.344 0.609l0.703 0.703q0.656-0.328 1.641-0.328 1.641 0 2.813 1.172t1.172 2.813h-1.969zM12 18q1.219 0 2.344-0.609l-0.703-0.75q-0.75 0.375-1.641 0.375-1.641 0-2.813-1.195t-1.172-2.836h1.969l-2.484-2.484-2.484 2.484h1.969q0 2.063 1.477 3.539t3.539 1.477zM20.016 5.016q0.797 0 1.383 0.586t0.586 1.383v12q0 0.797-0.586 1.406t-1.383 0.609h-16.031q-0.797 0-1.383-0.609t-0.586-1.406v-12q0-0.797 0.586-1.383t1.383-0.586h3.188l1.828-2.016h6l1.828 2.016h3.188z"></path>
</svg>
