<svg width="32" height="32" viewBox="0 0 32 32" fill="none" xmlns="http://www.w3.org/2000/svg">
<path fill-rule="evenodd" clip-rule="evenodd" d="M15.1756 4.93236C15.4413 4.82187 15.7262 4.76498 16.0139 4.76498C16.3017 4.76498 16.5866 4.82186 16.8523 4.93236C17.118 5.04285 17.3592 5.20477 17.5621 5.40881L17.5636 5.4103L18.497 6.34364L18.4982 6.34493C19.1882 7.03151 20.1224 7.41664 21.0939 7.41664H22.4273C23.0063 7.41664 23.5617 7.64667 23.9711 8.05612C24.3806 8.46558 24.6106 9.02092 24.6106 9.59997V10.9333C24.6106 11.9049 24.9958 12.8391 25.6823 13.529L25.6836 13.5303L26.617 14.4636L26.6184 14.4651C26.8225 14.668 26.9844 14.9093 27.0949 15.1749C27.2054 15.4406 27.2623 15.7256 27.2623 16.0133C27.2623 16.3011 27.2054 16.586 27.0949 16.8517C26.9844 17.1174 26.8225 17.3586 26.6184 17.5615L26.617 17.563L25.6836 18.4963L25.6821 18.4978C24.9964 19.1874 24.6112 20.1203 24.6106 21.0929V21.0933V22.4266C24.6106 23.0057 24.3806 23.561 23.9711 23.9705C23.5617 24.3799 23.0063 24.61 22.4273 24.61H21.0939H21.0935C20.121 24.6105 19.1881 24.9957 18.4984 25.6815L18.497 25.683L17.5636 26.6163L17.5621 26.6178C17.3592 26.8218 17.118 26.9838 16.8523 27.0943C16.5866 27.2048 16.3017 27.2616 16.0139 27.2616C15.7262 27.2616 15.4413 27.2048 15.1756 27.0943C14.9099 26.9838 14.6687 26.8218 14.4658 26.6178L14.4643 26.6163L13.5309 25.683L13.5295 25.6815C12.8398 24.9957 11.9069 24.6105 10.9344 24.61H10.9339H9.60061C9.02156 24.61 8.46622 24.3799 8.05677 23.9705C7.64731 23.561 7.41728 23.0057 7.41728 22.4266V21.0933L7.41728 21.0929C7.41673 20.1203 7.03154 19.1874 6.34577 18.4978L6.34428 18.4963L5.41095 17.563L5.40945 17.5615C5.20541 17.3586 5.04349 17.1174 4.933 16.8517C4.82251 16.586 4.76562 16.3011 4.76562 16.0133C4.76562 15.7256 4.82251 15.4406 4.933 15.1749C5.04349 14.9093 5.20541 14.668 5.40945 14.4651L5.41094 14.4636L6.34428 13.5303L6.34577 13.5288C7.03154 12.8392 7.41673 11.9063 7.41728 10.9337L7.41728 10.9333V9.59997C7.41728 9.02092 7.64731 8.46558 8.05677 8.05612C8.46622 7.64667 9.02156 7.41664 9.60061 7.41664H10.9339L10.9344 7.41664C11.9069 7.41608 12.8398 7.0309 13.5295 6.34513L13.5309 6.34364L14.4643 5.4103L14.4658 5.40881C14.6687 5.20477 14.9099 5.04285 15.1756 4.93236ZM6.99611 6.99546C6.30535 7.68622 5.91728 8.62309 5.91728 9.59997V10.9329V10.9331V10.9333C5.91684 11.5093 5.6888 12.0618 5.28285 12.4704L5.28213 12.4711L4.35178 13.4015L4.35093 13.4023C4.00711 13.7445 3.73423 14.1511 3.54799 14.599C3.36158 15.0472 3.26562 15.5279 3.26562 16.0133C3.26562 16.4988 3.36158 16.9794 3.54799 17.4276C3.73422 17.8755 4.00707 18.2821 4.35086 18.6242L4.35178 18.6251L5.28213 19.5555L5.28291 19.5563C5.68882 19.9649 5.91684 20.5173 5.91728 21.0933V21.0935V21.0937V22.4266C5.91728 23.4035 6.30535 24.3404 6.99611 25.0312C7.68686 25.7219 8.62373 26.11 9.60061 26.11H10.9335C11.5097 26.1103 12.0623 26.3383 12.471 26.7444L12.4718 26.7451L13.4021 27.6755L13.4032 27.6766C13.7453 28.0203 14.1519 28.2931 14.5996 28.4793C15.0478 28.6657 15.5285 28.7616 16.0139 28.7616C16.4994 28.7616 16.9801 28.6657 17.4283 28.4793C17.876 28.2931 18.2826 28.0203 18.6247 27.6766L18.6258 27.6755L19.5561 26.7451L19.5569 26.7444C19.9656 26.3383 20.5182 26.1103 21.0944 26.11H22.4273C23.4042 26.11 24.341 25.7219 25.0318 25.0312C25.7226 24.3404 26.1106 23.4035 26.1106 22.4266V21.0937C26.1109 20.5176 26.339 19.965 26.745 19.5563L26.7458 19.5555L27.6761 18.6251L27.6772 18.624C28.0209 18.282 28.2937 17.8754 28.4799 17.4276C28.6663 16.9794 28.7623 16.4988 28.7623 16.0133C28.7623 15.5279 28.6663 15.0472 28.4799 14.599C28.2937 14.1512 28.0209 13.7447 27.6772 13.4026L27.6761 13.4015L26.7456 12.4709L26.7447 12.4701C26.3385 12.0614 26.1106 11.508 26.1106 10.9333V9.59997C26.1106 8.62309 25.7226 7.68622 25.0318 6.99546C24.341 6.30471 23.4042 5.91664 22.4273 5.91664H21.0939C20.5192 5.91664 19.9657 5.68871 19.557 5.2824L19.5563 5.28169L18.6258 4.35114L18.6249 4.35022C18.2827 4.00643 17.8761 3.73358 17.4283 3.54734C16.98 3.36094 16.4994 3.26498 16.0139 3.26498C15.5285 3.26498 15.0478 3.36094 14.5996 3.54734C14.1518 3.73359 13.7451 4.00646 13.403 4.35029L13.4021 4.35114L12.4718 5.28149L12.4711 5.28221C12.0624 5.68816 11.51 5.9162 10.9339 5.91664H10.9337H10.9335H9.60061C8.62373 5.91664 7.68686 6.30471 6.99611 6.99546ZM20.5303 13.8637C20.8232 13.5708 20.8232 13.0959 20.5303 12.803C20.2374 12.5101 19.7626 12.5101 19.4697 12.803L14.6667 17.606L12.5303 15.4697C12.2374 15.1768 11.7626 15.1768 11.4697 15.4697C11.1768 15.7626 11.1768 16.2374 11.4697 16.5303L14.1363 19.197C14.4292 19.4899 14.9041 19.4899 15.197 19.197L20.5303 13.8637Z" />
</svg>
