<svg width="32" height="32" viewBox="0 0 32 32" fill="none" xmlns="http://www.w3.org/2000/svg">
<path fill-rule="evenodd" clip-rule="evenodd" d="M28 16C28 22.6274 22.6274 28 16 28C9.37258 28 4 22.6274 4 16C4 9.37258 9.37258 4 16 4C22.6274 4 28 9.37258 28 16ZM20.5303 13.8637C20.8232 13.5708 20.8232 13.0959 20.5303 12.803C20.2374 12.5101 19.7626 12.5101 19.4697 12.803L14.6667 17.606L12.5303 15.4697C12.2374 15.1768 11.7626 15.1768 11.4697 15.4697C11.1768 15.7626 11.1768 16.2374 11.4697 16.5303L14.1363 19.197C14.4292 19.4899 14.9041 19.4899 15.197 19.197L20.5303 13.8637Z"/>
</svg>
