<!-- Generated by IcoMoon.io -->
<svg version="1.1" xmlns="http://www.w3.org/2000/svg" width="24" height="24" viewBox="0 0 24 24">
<title>checkbox-on</title>
<path d="M10.243 14.192l5.66-5.66c0.389-0.389 1.018-0.39 1.411 0.003 0.391 0.391 0.393 1.022 0.003 1.411l-6.37 6.37c-0.389 0.389-1.018 0.39-1.411-0.003l-2.829-2.829c-0.39-0.39-0.393-1.021 0-1.414 0.391-0.391 1.021-0.393 1.414-0l2.121 2.121zM12 23c6.075 0 11-4.925 11-11s-4.925-11-11-11c-6.075 0-11 4.925-11 11s4.925 11 11 11z"></path>
</svg>
