<!-- Generated by IcoMoon.io -->
<svg version="1.1" xmlns="http://www.w3.org/2000/svg" width="24" height="24" viewBox="0 0 24 24">
<title>clear-text</title>
<path d="M12 22c-5.523 0-10-4.477-10-10s4.477-10 10-10c5.523 0 10 4.477 10 10s-4.477 10-10 10zM13.479 12.065l2.355-2.355c0.395-0.395 0.393-1.026 0.002-1.417-0.393-0.393-1.025-0.389-1.417 0.002l-2.355 2.355-2.355-2.355c-0.395-0.395-1.026-0.393-1.417-0.002-0.393 0.393-0.389 1.025 0.002 1.417l2.355 2.355-2.355 2.355c-0.395 0.395-0.393 1.026-0.002 1.417 0.393 0.393 1.025 0.389 1.417-0.002l2.355-2.355 2.355 2.355c0.395 0.395 1.026 0.393 1.417 0.002 0.393-0.393 0.389-1.025-0.002-1.417l-2.355-2.355z"></path>
</svg>
