<!-- Generated by IcoMoon.io -->
<svg version="1.1" xmlns="http://www.w3.org/2000/svg" width="24" height="24" viewBox="0 0 24 24">
<title>close</title>
<path d="M18.292 7.118c0.391-0.391 0.395-1.021 0.003-1.413v0c-0.389-0.389-1.022-0.388-1.413 0.003l-4.882 4.882-4.882-4.882c-0.391-0.391-1.021-0.395-1.413-0.003v0c-0.389 0.389-0.388 1.022 0.003 1.413l4.882 4.882-4.882 4.882c-0.391 0.391-0.395 1.021-0.003 1.413v0c0.389 0.389 1.022 0.388 1.413-0.003l4.882-4.882 4.882 4.882c0.391 0.391 1.021 0.395 1.413 0.003v0c0.389-0.389 0.388-1.022-0.003-1.413l-4.882-4.882 4.882-4.882z"></path>
</svg>
