<svg width="16" height="16" viewBox="0 0 16 16" xmlns="http://www.w3.org/2000/svg">
<title>comments</title>
<path d="M4.66602 3.83398C4.26819 3.83398 3.88666 3.99202 3.60536 4.27332C3.32405 4.55463 3.16602 4.93616 3.16602 5.33398V9.33398C3.16602 9.73181 3.32405 10.1133 3.60536 10.3946C3.88666 10.6759 4.26819 10.834 4.66602 10.834H5.99935C6.13196 10.834 6.25913 10.8867 6.3529 10.9804L7.99935 12.6269L9.6458 10.9804C9.73956 10.8867 9.86674 10.834 9.99935 10.834H11.3327C11.7305 10.834 12.112 10.6759 12.3933 10.3946C12.6746 10.1133 12.8327 9.73181 12.8327 9.33398V5.33398C12.8327 4.93616 12.6746 4.55463 12.3933 4.27332C12.112 3.99202 11.7305 3.83398 11.3327 3.83398H4.66602ZM2.89825 3.56622C3.36709 3.09738 4.00297 2.83398 4.66602 2.83398H11.3327C11.9957 2.83398 12.6316 3.09738 13.1004 3.56622C13.5693 4.03506 13.8327 4.67094 13.8327 5.33398V9.33398C13.8327 9.99703 13.5693 10.6329 13.1004 11.1018C12.6316 11.5706 11.9957 11.834 11.3327 11.834H10.2065L8.3529 13.6875C8.25913 13.7813 8.13196 13.834 7.99935 13.834C7.86674 13.834 7.73956 13.7813 7.6458 13.6875L5.79224 11.834H4.66602C4.00297 11.834 3.36709 11.5706 2.89825 11.1018C2.42941 10.6329 2.16602 9.99703 2.16602 9.33398V5.33398C2.16602 4.67094 2.42941 4.03506 2.89825 3.56622ZM4.83398 6C4.83398 5.72386 5.05784 5.5 5.33398 5.5H10.6673C10.9435 5.5 11.1673 5.72386 11.1673 6C11.1673 6.27614 10.9435 6.5 10.6673 6.5H5.33398C5.05784 6.5 4.83398 6.27614 4.83398 6ZM5.33398 8.16602C5.05784 8.16602 4.83398 8.38987 4.83398 8.66602C4.83398 8.94216 5.05784 9.16602 5.33398 9.16602H9.33398C9.61013 9.16602 9.83398 8.94216 9.83398 8.66602C9.83398 8.38987 9.61013 8.16602 9.33398 8.16602H5.33398Z" />
</svg>
