<!-- Generated by IcoMoon.io -->
<svg version="1.1" xmlns="http://www.w3.org/2000/svg" width="24" height="24" viewBox="0 0 24 24">
<title>deals</title>
<path fill="#555" d="M7 4c1.657 0 3 1.343 3 3s-1.343 3-3 3c-1.657 0-3-1.343-3-3s1.343-3 3-3v0zM17 14c1.657 0 3 1.343 3 3s-1.343 3-3 3c-1.657 0-3-1.343-3-3s1.343-3 3-3v0zM6.114 19.296c-0.389 0.389-1.017 0.391-1.409-0.001v0c-0.389-0.389-0.387-1.023-0.001-1.409l13.183-13.183c0.389-0.389 1.017-0.391 1.409 0.001v0c0.389 0.389 0.387 1.023 0.001 1.409l-13.183 13.183z"></path>
</svg>
