<svg version="1.1" xmlns="http://www.w3.org/2000/svg" width="24" height="24" viewBox="0 0 24 24">
<title>download</title>
<path d="M3.75 12C3.75 7.44365 7.44365 3.75 12 3.75C16.5563 3.75 20.25 7.44365 20.25 12C20.25 16.5563 16.5563 20.25 12 20.25C7.44365 20.25 3.75 16.5563 3.75 12ZM12 2.25C6.61522 2.25 2.25 6.61522 2.25 12C2.25 17.3848 6.61522 21.75 12 21.75C17.3848 21.75 21.75 17.3848 21.75 12C21.75 6.61522 17.3848 2.25 12 2.25ZM8.53033 11.4697C8.23744 11.1768 7.76256 11.1768 7.46967 11.4697C7.17678 11.7626 7.17678 12.2374 7.46967 12.5303L11.4697 16.5303C11.4787 16.5393 11.4878 16.548 11.4971 16.5565C11.5624 16.6155 11.6355 16.6611 11.7129 16.6931C11.7958 16.7275 11.8862 16.7474 11.981 16.7498C11.9873 16.7499 11.9936 16.75 12 16.75C12.1919 16.75 12.3839 16.6768 12.5303 16.5303C12.5306 16.5301 12.5308 16.5299 12.531 16.5296L16.5303 12.5303C16.8232 12.2374 16.8232 11.7626 16.5303 11.4697C16.2374 11.1768 15.7626 11.1768 15.4697 11.4697L12.75 14.1893V8C12.75 7.58579 12.4142 7.25 12 7.25C11.5858 7.25 11.25 7.58579 11.25 8V14.1893L8.53033 11.4697Z"></path>
</svg>
