<!-- Generated by IcoMoon.io -->
<svg version="1.1" xmlns="http://www.w3.org/2000/svg" width="24" height="24" viewBox="0 0 24 24">
<title>equalizer</title>
<path d="M12.991 20c0.557 0 1.009-0.445 1.009-1.001v-13.998c0-0.553-0.443-1.001-1.009-1.001h-1.981c-0.557 0-1.009 0.445-1.009 1.001v13.998c0 0.553 0.443 1.001 1.009 1.001h1.981zM6.991 20c0.557 0 1.009-0.453 1.009-0.997v-6.006c0-0.551-0.443-0.997-1.009-0.997h-1.981c-0.557 0-1.009 0.453-1.009 0.997v6.006c0 0.551 0.443 0.997 1.009 0.997h1.981zM16 19.004c0 0.55 0.443 0.996 1.009 0.996h1.981c0.557 0 1.009-0.445 1.009-0.996v-9.009c0-0.55-0.443-0.996-1.009-0.996h-1.981c-0.557 0-1.009 0.445-1.009 0.996v9.009z"></path>
</svg>
