<svg width="32" height="32" viewBox="0 0 32 32" fill="none" xmlns="http://www.w3.org/2000/svg">
<path fill-rule="evenodd" clip-rule="evenodd" d="M20.4 4H11.6C11.2 4 10.9333 4.13333 10.6667 4.4L4.4 10.6667C4.13333 10.9333 4 11.2 4 11.6V20.4C4 20.8 4.13333 21.0667 4.4 21.3333L10.6667 27.6C10.9333 27.8667 11.2 28 11.6 28H20.4C20.8 28 21.0667 27.8667 21.3333 27.6L27.6 21.3333C27.8667 21.0667 28 20.8 28 20.4V11.6C28 11.2 27.8667 10.9333 27.6 10.6667L21.3333 4.4C21.0667 4.13333 20.8 4 20.4 4ZM16 9.66667C16.5523 9.66667 17 10.1144 17 10.6667V16C17 16.5523 16.5523 17 16 17C15.4477 17 15 16.5523 15 16V10.6667C15 10.1144 15.4477 9.66667 16 9.66667ZM15 21.3333C15 20.781 15.4477 20.3333 16 20.3333H16.0125C16.5648 20.3333 17.0125 20.781 17.0125 21.3333C17.0125 21.8856 16.5648 22.3333 16.0125 22.3333H16C15.4477 22.3333 15 21.8856 15 21.3333Z" />
</svg>
