<!-- Generated by IcoMoon.io -->
<svg version="1.1" xmlns="http://www.w3.org/2000/svg" width="24" height="24" viewBox="0 0 24 24">
<title>error</title>
<path d="M2 12c0 5.52 4.48 10 10 10s10-4.48 10-10c0-5.52-4.48-10-10-10s-10 4.48-10 10zM12 18c-0.828 0-1.5-0.666-1.5-1.5v0c0-0.828 0.666-1.5 1.5-1.5v0c0.828 0 1.5 0.666 1.5 1.5v0c0 0.828-0.666 1.5-1.5 1.5v0zM12 13c-0.552 0-1-0.451-1-0.991v-4.018c0-0.547 0.444-0.991 1-0.991v0c0.552 0 1 0.451 1 0.991v4.018c0 0.547-0.444 0.991-1 0.991v0z"></path>
</svg>
