<!-- Generated by IcoMoon.io -->
<svg version="1.1" xmlns="http://www.w3.org/2000/svg" width="24" height="24" viewBox="0 0 24 24">
<title>events</title>
<path fill="#555" opacity="0.9" d="M8 10c-0.552 0-1 0.444-1 1v3c0 0.552 0.444 1 1 1h3c0.552 0 1-0.444 1-1v-3c0-0.552-0.444-1-1-1h-3zM16 3h-8v-1c0-0.552-0.444-1-1-1v0c-0.552 0-1 0.444-1 1v1h-1c-1.11 0-1.99 0.9-1.99 2l-0.010 14c0 1.1 0.89 2 2 2h14c1.1 0 2-0.9 2-2v-14c0-1.1-0.9-2-2-2h-1v-1c0-0.552-0.444-1-1-1v0c-0.552 0-1 0.444-1 1v1zM19 19h-14v-11h14v11z"></path>
</svg>
