<!-- Generated by IcoMoon.io -->
<svg version="1.1" xmlns="http://www.w3.org/2000/svg" width="24" height="24" viewBox="0 0 24 24">
<title>exit-to-app</title>
<path d="M15.795 16.295c0.389 0.389 1.018 0.392 1.411-0.001l3.588-3.588c0.39-0.39 0.393-1.019 0-1.412l-3.588-3.588c-0.39-0.39-1.019-0.393-1.411-0.001v0c-0.389 0.389-0.389 1.023 0 1.413l1.875 1.882h-8.672c-0.551 0-0.998 0.444-0.998 1v0c0 0.552 0.441 1 0.998 1h8.672l-1.875 1.882c-0.389 0.391-0.392 1.021 0 1.413v0zM11 5c1.11 0 2 0.9 2 2v1c0 0.552-0.444 1-1 1v0c-0.552 0-1-0.444-1-1v-1h-7v10h7v-1c0-0.552 0.444-1 1-1v0c0.552 0 1 0.444 1 1v1c0 1.1-0.89 2-2 2h-7c-1.1 0-2-0.9-2-2v-10c0-1.1 0.9-2 2-2h7z"></path>
</svg>
