<!-- Generated by IcoMoon.io -->
<svg version="1.1" xmlns="http://www.w3.org/2000/svg" width="24" height="24" viewBox="0 0 24 24">
<title>eye-crossed</title>
<path d="M3.818 6.039l1.047-1.039 13.68 13.68-1.039 1.047-2.52-2.52c-0.941 0.311-1.939 0.474-2.986 0.474-4.091 0-7.585-2.544-9-6.136 0.565-1.44 1.465-2.708 2.61-3.715l-1.792-1.792zM12 9.091c0.651 0 1.275 0.259 1.736 0.719s0.719 1.085 0.719 1.736c0 0.279-0.047 0.555-0.139 0.818l-3.134-3.134c0.263-0.092 0.54-0.139 0.818-0.139zM12 5.409c4.091 0 7.584 2.545 9 6.136-0.668 1.696-1.803 3.168-3.273 4.246l-1.162-1.17c1.131-0.783 2.044-1.842 2.651-3.076-0.662-1.35-1.688-2.488-2.964-3.283s-2.749-1.217-4.252-1.217c-0.892 0-1.767 0.147-2.585 0.409l-1.26-1.252c1.178-0.507 2.479-0.794 3.845-0.794zM4.784 11.546c0.661 1.35 1.688 2.487 2.964 3.283s2.749 1.217 4.252 1.217c0.564 0 1.121-0.057 1.636-0.172l-1.866-1.874c-0.569-0.061-1.101-0.315-1.506-0.72s-0.659-0.936-0.72-1.506l-2.782-2.79c-0.81 0.695-1.489 1.563-1.98 2.561z"></path>
</svg>
