<!-- Generated by IcoMoon.io -->
<svg version="1.1" xmlns="http://www.w3.org/2000/svg" width="24" height="24" viewBox="0 0 24 24">
<title>eye</title>
<path d="M12 9.682c0.651 0 1.275 0.259 1.736 0.719s0.719 1.085 0.719 1.736c0 0.651-0.259 1.275-0.719 1.736s-1.085 0.719-1.736 0.719c-0.651 0-1.275-0.259-1.736-0.719s-0.719-1.085-0.719-1.736c0-0.651 0.259-1.275 0.719-1.736s1.085-0.719 1.736-0.719zM12 6c4.091 0 7.584 2.545 9 6.136-1.416 3.592-4.909 6.136-9 6.136s-7.585-2.544-9-6.136c1.415-3.592 4.909-6.136 9-6.136zM4.784 12.136c0.661 1.35 1.688 2.488 2.964 3.284s2.749 1.218 4.253 1.218c1.503 0 2.977-0.422 4.253-1.218s2.303-1.933 2.964-3.284c-0.661-1.35-1.688-2.488-2.964-3.284s-2.749-1.218-4.253-1.218c-1.503 0-2.977 0.422-4.253 1.218s-2.303 1.933-2.964 3.284z"></path>
</svg>
