<?xml version="1.0" ?><!DOCTYPE svg  PUBLIC '-//W3C//DTD SVG 1.1//EN'  'http://www.w3.org/Graphics/SVG/1.1/DTD/svg11.dtd'><svg enable-background="new 0 0 26 26" id="Слой_1" version="1.1" viewBox="0 0 26 26" xml:space="preserve" xmlns="http://www.w3.org/2000/svg" xmlns:xlink="http://www.w3.org/1999/xlink"><g><path d="M1.75,7.75h6.6803589c0.3355713,1.2952271,1.5039063,2.2587891,2.9026489,2.2587891   S13.9000854,9.0452271,14.2356567,7.75H24.25C24.6640625,7.75,25,7.4140625,25,7s-0.3359375-0.75-0.75-0.75H14.2356567   c-0.3355713-1.2952271-1.5039063-2.2587891-2.9026489-2.2587891S8.7659302,4.9547729,8.4303589,6.25H1.75   C1.3359375,6.25,1,6.5859375,1,7S1.3359375,7.75,1.75,7.75z M11.3330078,5.4912109   c0.8320313,0,1.5087891,0.6767578,1.5087891,1.5087891s-0.6767578,1.5087891-1.5087891,1.5087891S9.8242188,7.8320313,9.8242188,7   S10.5009766,5.4912109,11.3330078,5.4912109z" /><path d="M24.25,12.25h-1.6061401c-0.3355713-1.2952271-1.5039063-2.2587891-2.9026489-2.2587891   S17.1741333,10.9547729,16.838562,12.25H1.75C1.3359375,12.25,1,12.5859375,1,13s0.3359375,0.75,0.75,0.75h15.088562   c0.3355713,1.2952271,1.5039063,2.2587891,2.9026489,2.2587891s2.5670776-0.963562,2.9026489-2.2587891H24.25   c0.4140625,0,0.75-0.3359375,0.75-0.75S24.6640625,12.25,24.25,12.25z M19.7412109,14.5087891   c-0.8320313,0-1.5087891-0.6767578-1.5087891-1.5087891s0.6767578-1.5087891,1.5087891-1.5087891S21.25,12.1679688,21.25,13   S20.5732422,14.5087891,19.7412109,14.5087891z" /><path d="M24.25,18.25H9.7181396c-0.3355103-1.2952271-1.5037842-2.2587891-2.9017334-2.2587891   c-1.3987427,0-2.5670776,0.963562-2.9026489,2.2587891H1.75C1.3359375,18.25,1,18.5859375,1,19s0.3359375,0.75,0.75,0.75h2.1637573   c0.3355713,1.2952271,1.5039063,2.2587891,2.9026489,2.2587891c1.3979492,0,2.5662231-0.963562,2.9017334-2.2587891H24.25   c0.4140625,0,0.75-0.3359375,0.75-0.75S24.6640625,18.25,24.25,18.25z M6.8164063,20.5087891   c-0.8320313,0-1.5087891-0.6767578-1.5087891-1.5087891s0.6767578-1.5087891,1.5087891-1.5087891   c0.8310547,0,1.5078125,0.6767578,1.5078125,1.5087891S7.6474609,20.5087891,6.8164063,20.5087891z" /></g></svg>
