<!-- Generated by IcoMoon.io -->
<svg version="1.1" xmlns="http://www.w3.org/2000/svg" width="24" height="24" viewBox="0 0 24 24">
<title>friends</title>
<path d="M12 14c-1.43-0.67-3.3-1-4.5-1-2.17 0-6.5 1.080-6.5 3.25v1.757c0 0.548 0.439 0.993 1.002 0.993h19.995c0.554 0 1.002-0.454 1.002-0.993v-1.757c0-2.17-4.33-3.25-6.5-3.25-1.2 0-3.070 0.34-4.5 1zM12.5 17.5h-10v-1.25c0-0.54 2.56-1.75 5-1.75s5 1.21 5 1.75v1.25zM21.5 17.5h-7.5v-1.25c0-0.46-0.2-0.86-0.52-1.22 0.88-0.3 1.96-0.53 3.020-0.53 2.44 0 5 1.21 5 1.75v1.25zM7.5 12c1.93 0 3.5-1.57 3.5-3.5s-1.57-3.5-3.5-3.5c-1.93 0-3.5 1.57-3.5 3.5s1.57 3.5 3.5 3.5v0zM7.5 6.5c1.1 0 2 0.9 2 2s-0.9 2-2 2c-1.1 0-2-0.9-2-2s0.9-2 2-2v0zM16.5 12c1.93 0 3.5-1.57 3.5-3.5s-1.57-3.5-3.5-3.5c-1.93 0-3.5 1.57-3.5 3.5s1.57 3.5 3.5 3.5v0zM16.5 6.5c1.1 0 2 0.9 2 2s-0.9 2-2 2c-1.1 0-2-0.9-2-2s0.9-2 2-2v0z"></path>
</svg>
