<?xml version="1.0" ?><!DOCTYPE svg  PUBLIC '-//W3C//DTD SVG 1.1//EN'  'http://www.w3.org/Graphics/SVG/1.1/DTD/svg11.dtd'><svg height="32px" id="Layer_1" style="enable-background:new 0 0 32 32;" version="1.1" viewBox="0 0 32 32" width="32px" xml:space="preserve" xmlns="http://www.w3.org/2000/svg" xmlns:xlink="http://www.w3.org/1999/xlink"><path d="M28,2h-6c-1.104,0-2,0.896-2,2s0.896,2,2,2h1.2l-4.6,4.601C18.28,10.921,18,11.344,18,12c0,1.094,0.859,2,2,2  c0.641,0,1.049-0.248,1.4-0.6L26,8.8V10c0,1.104,0.896,2,2,2s2-0.896,2-2V4C30,2.896,29.104,2,28,2z M12,18  c-0.641,0-1.049,0.248-1.4,0.6L6,23.2V22c0-1.104-0.896-2-2-2s-2,0.896-2,2v6c0,1.104,0.896,2,2,2h6c1.104,0,2-0.896,2-2  s-0.896-2-2-2H8.8l4.6-4.601C13.72,21.079,14,20.656,14,20C14,18.906,13.141,18,12,18z"/></svg>