<svg width="24" height="24" viewBox="0 0 24 24" fill="none" xmlns="http://www.w3.org/2000/svg">
<path fill-rule="evenodd" clip-rule="evenodd" d="M6 3.75C4.75736 3.75 3.75 4.75736 3.75 6V11.1893L6.46967 8.46962L6.47997 8.45952C7.04576 7.91508 7.74149 7.58008 8.5 7.58008C9.25851 7.58008 9.95424 7.91508 10.52 8.45952L10.5303 8.46962L13 10.9393L14.4697 9.46962L14.48 9.45952C15.0458 8.91508 15.7415 8.58008 16.5 8.58008C17.2585 8.58008 17.9542 8.91508 18.52 9.45952L18.5303 9.46962L20.25 11.1893V6C20.25 4.75736 19.2426 3.75 18 3.75H6ZM15.5249 10.5357L14.0607 12L14.5303 12.4696C14.8232 12.7625 14.8232 13.2374 14.5303 13.5303C14.2374 13.8232 13.7626 13.8232 13.4697 13.5303L12.4697 12.5303L9.47512 9.53573C9.13048 9.20595 8.79334 9.08008 8.5 9.08008C8.20666 9.08008 7.86952 9.20595 7.52488 9.53573L3.75 13.3106V14C3.75 15.2426 4.75736 16.25 6 16.25H18C19.2426 16.25 20.25 15.2426 20.25 14V13.3106L17.4751 10.5357C17.1305 10.206 16.7933 10.0801 16.5 10.0801C16.2067 10.0801 15.8695 10.206 15.5249 10.5357ZM21.75 6V13V14C21.75 16.0711 20.0711 17.75 18 17.75H6C3.92893 17.75 2.25 16.0711 2.25 14V13V6C2.25 3.92893 3.92893 2.25 6 2.25H18C20.0711 2.25 21.75 3.92893 21.75 6ZM14.25 6C14.25 5.58579 14.5858 5.25 15 5.25H15.01C15.4242 5.25 15.76 5.58579 15.76 6C15.76 6.41421 15.4242 6.75 15.01 6.75H15C14.5858 6.75 14.25 6.41421 14.25 6ZM8 20.25C7.58579 20.25 7.25 20.5858 7.25 21C7.25 21.4142 7.58579 21.75 8 21.75H8.01C8.42421 21.75 8.76 21.4142 8.76 21C8.76 20.5858 8.42421 20.25 8.01 20.25H8ZM11.25 21C11.25 20.5858 11.5858 20.25 12 20.25H12.01C12.4242 20.25 12.76 20.5858 12.76 21C12.76 21.4142 12.4242 21.75 12.01 21.75H12C11.5858 21.75 11.25 21.4142 11.25 21ZM16 20.25C15.5858 20.25 15.25 20.5858 15.25 21C15.25 21.4142 15.5858 21.75 16 21.75H16.01C16.4242 21.75 16.76 21.4142 16.76 21C16.76 20.5858 16.4242 20.25 16.01 20.25H16Z" fill="black"/>
</svg>
