<svg width="16" height="16" viewBox="0 0 16 16" xmlns="http://www.w3.org/2000/svg">
<path fill-rule="evenodd" clip-rule="evenodd" d="M3.16602 4.66602C3.16602 3.83759 3.83759 3.16602 4.66602 3.16602H11.3327C12.1611 3.16602 12.8327 3.83759 12.8327 4.66602V8.79221L12.3542 8.31373L12.3543 8.31367L12.3473 8.307C11.9701 7.94404 11.5063 7.7207 11.0007 7.7207C10.495 7.7207 10.0312 7.94404 9.65396 8.307L9.6539 8.30693L9.6471 8.31373L9.33366 8.62717L7.68624 6.97975L7.6863 6.97968L7.67937 6.97301C7.30217 6.61005 6.83835 6.38672 6.33268 6.38672C5.82701 6.38672 5.36319 6.61005 4.98599 6.97301L4.98593 6.97295L4.97913 6.97975L3.16602 8.79286V4.66602ZM10.0408 9.33428L11.0196 10.3131C11.2148 10.5083 11.2148 10.8249 11.0196 11.0202C10.8243 11.2155 10.5077 11.2155 10.3125 11.0202L6.98275 7.69048C6.753 7.47063 6.52824 7.38672 6.33268 7.38672C6.13712 7.38672 5.91236 7.47064 5.6826 7.69049L3.16602 10.2071V11.3327C3.16602 12.1611 3.83759 12.8327 4.66602 12.8327H11.3327C12.1611 12.8327 12.8327 12.1611 12.8327 11.3327V10.2064L11.6507 9.02447C11.421 8.80462 11.1962 8.7207 11.0007 8.7207C10.8051 8.7207 10.5803 8.80462 10.3506 9.02447L10.0408 9.33428ZM13.8327 10.0368V11.3327C13.8327 12.7134 12.7134 13.8327 11.3327 13.8327H4.66602C3.2853 13.8327 2.16602 12.7134 2.16602 11.3327V10.0001V9.99988V4.66602C2.16602 3.2853 3.2853 2.16602 4.66602 2.16602H11.3327C12.7134 2.16602 13.8327 3.2853 13.8327 4.66602V9.96445C13.8344 9.98853 13.8344 10.0127 13.8327 10.0368ZM10 4.83398C9.72386 4.83398 9.5 5.05784 9.5 5.33398C9.5 5.61013 9.72386 5.83398 10 5.83398H10.0075C10.2836 5.83398 10.5075 5.61013 10.5075 5.33398C10.5075 5.05784 10.2836 4.83398 10.0075 4.83398H10Z"/>
</svg>
