<!-- Generated by IcoMoon.io -->
<svg version="1.1" xmlns="http://www.w3.org/2000/svg" width="24" height="24" viewBox="0 0 24 24">
<title>gift</title>
<path d="M3.54 12.492c-0.436 0-0.79-0.354-0.79-0.79v-3.578c0-0.436 0.354-0.79 0.79-0.79h16.799c0.436 0 0.79 0.354 0.79 0.79v3.578c0 0.436-0.354 0.79-0.79 0.79h-0.334v7.998c0 0.436-0.354 0.79-0.79 0.79h-14.552c-0.436 0-0.79-0.354-0.79-0.79v-7.998h-0.333zM19.549 10.912v-1.998h-5.579v1.998h5.579zM18.425 19.7v-7.208h-4.456v7.208h4.456zM9.909 19.7v-7.208h-4.456v7.208h4.456zM9.909 10.912v-1.998h-5.579v1.998h5.579zM12.39 19.7v-10.786h-0.902v10.786h0.902z"></path>
<path d="M15.815 3.313c1.101 0 1.866 0.903 2.119 1.968 0.173 0.684 0.050 1.335-0.358 1.859-0.845 1.086-2.762 1.492-5.108 1.492-0.224 0-0.415-0.004-0.541-0.011-0.147 0.006-0.338 0.011-0.562 0.011-2.346 0-4.263-0.406-5.108-1.492-0.408-0.525-0.531-1.176-0.356-1.866 0.253-1.060 1.018-1.961 2.118-1.961 1.167 0 2.436 1.039 3.898 3.135 1.462-2.096 2.731-3.135 3.898-3.135zM16.377 6.207c0.116-0.149 0.143-0.317 0.081-0.562-0.028-0.111-0.087-0.275-0.18-0.438-0.138-0.243-0.295-0.373-0.464-0.373-0.489 0-1.316 0.617-2.492 2.256 1.557-0.090 2.702-0.428 3.055-0.882zM8.018 4.833c-0.304 0-0.557 0.441-0.643 0.806-0.063 0.25-0.036 0.418 0.080 0.568 0.353 0.453 1.498 0.792 3.054 0.882-1.176-1.639-2.003-2.256-2.492-2.256z"></path>
</svg>
