<!-- Generated by IcoMoon.io -->
<svg version="1.1" xmlns="http://www.w3.org/2000/svg" width="24" height="24" viewBox="0 0 24 24">
<title>github</title>
<path d="M9.214 18.081c0.139-0.017 0.217 0.022 0.234 0.117 0.017 0.087-0.043 0.148-0.182 0.182s-0.217 0-0.234-0.104c-0.017-0.104 0.043-0.169 0.182-0.195zM8.471 18.185c0.148-0.017 0.221 0.030 0.221 0.143 0 0.095-0.070 0.143-0.208 0.143-0.147 0.017-0.221-0.030-0.221-0.143 0-0.096 0.069-0.143 0.208-0.143zM7.456 18.146c0.035-0.096 0.117-0.126 0.247-0.091 0.139 0.044 0.195 0.113 0.169 0.208-0.035 0.104-0.117 0.13-0.247 0.078-0.147-0.035-0.204-0.1-0.169-0.195zM20.9 3.1c0.733 0.733 1.1 1.617 1.1 2.65v12.5c0 1.033-0.367 1.916-1.1 2.65s-1.617 1.1-2.649 1.1h-2.917c-0.139 0-0.245-0.004-0.319-0.013s-0.158-0.030-0.254-0.065c-0.095-0.035-0.165-0.098-0.208-0.189s-0.065-0.21-0.065-0.358v-3.112c0-0.842-0.226-1.458-0.677-1.849 0.495-0.052 0.94-0.13 1.335-0.235s0.803-0.273 1.224-0.508c0.421-0.235 0.773-0.523 1.055-0.866s0.512-0.799 0.69-1.367c0.178-0.568 0.267-1.222 0.267-1.96 0-1.050-0.343-1.944-1.029-2.682 0.321-0.79 0.287-1.675-0.104-2.656-0.243-0.078-0.595-0.030-1.055 0.143s-0.859 0.364-1.198 0.573l-0.495 0.312c-0.808-0.226-1.641-0.339-2.5-0.339s-1.693 0.113-2.5 0.339c-0.139-0.096-0.323-0.213-0.553-0.352s-0.592-0.306-1.087-0.501c-0.495-0.195-0.868-0.254-1.12-0.176-0.382 0.981-0.412 1.866-0.091 2.656-0.686 0.738-1.029 1.632-1.029 2.682 0 0.738 0.089 1.389 0.267 1.953s0.406 1.020 0.684 1.367c0.278 0.347 0.627 0.638 1.048 0.872s0.829 0.404 1.224 0.508c0.395 0.104 0.84 0.182 1.335 0.234-0.347 0.312-0.56 0.76-0.638 1.341-0.182 0.087-0.378 0.152-0.586 0.196s-0.456 0.065-0.742 0.065-0.571-0.093-0.853-0.28c-0.282-0.187-0.523-0.458-0.723-0.814-0.165-0.278-0.375-0.503-0.631-0.677s-0.471-0.278-0.645-0.312l-0.26-0.039c-0.182 0-0.308 0.019-0.378 0.058s-0.091 0.089-0.065 0.15c0.026 0.061 0.065 0.121 0.117 0.182s0.109 0.113 0.169 0.156l0.091 0.065c0.191 0.087 0.38 0.252 0.566 0.495s0.323 0.464 0.41 0.664l0.13 0.3c0.113 0.33 0.304 0.597 0.573 0.801s0.56 0.334 0.872 0.39c0.312 0.056 0.614 0.087 0.905 0.091s0.532-0.011 0.723-0.046l0.3-0.052c0 0.33 0.002 0.777 0.007 1.341s0.007 0.86 0.007 0.886c0 0.191-0.048 0.336-0.143 0.436s-0.191 0.156-0.286 0.17c-0.095 0.013-0.239 0.019-0.43 0.019h-2.917c-1.033 0-1.916-0.367-2.65-1.1s-1.1-1.617-1.1-2.65v-12.5c0-1.033 0.367-1.916 1.1-2.65s1.617-1.1 2.65-1.1h12.5c1.033 0 1.916 0.367 2.65 1.1zM5.958 16.557c0.052-0.052 0.122-0.039 0.208 0.039 0.078 0.096 0.087 0.165 0.026 0.208-0.052 0.061-0.122 0.048-0.208-0.039-0.078-0.096-0.087-0.165-0.026-0.208zM5.529 16.232c0.026-0.044 0.082-0.052 0.169-0.026 0.087 0.044 0.117 0.096 0.091 0.157-0.043 0.061-0.1 0.069-0.169 0.026-0.087-0.043-0.117-0.095-0.091-0.156zM6.362 17.065c0.078-0.061 0.152-0.035 0.221 0.078 0.078 0.104 0.078 0.187 0 0.247-0.070 0.052-0.143 0.022-0.221-0.091s-0.078-0.191 0-0.234zM6.818 17.651c0.069-0.078 0.156-0.065 0.26 0.039 0.104 0.096 0.122 0.178 0.052 0.247-0.069 0.078-0.156 0.065-0.26-0.039-0.113-0.096-0.13-0.178-0.052-0.248z"></path>
</svg>
