<!-- Generated by IcoMoon.io -->
<svg version="1.1" xmlns="http://www.w3.org/2000/svg" width="24" height="24" viewBox="0 0 24 24">
<title>history</title>
<path d="M4 12h-2.001c-0.552 0-0.681 0.318-0.285 0.713l2.463 2.463c0.394 0.394 1.036 0.408 1.439 0.027l2.659-2.517c0.401-0.379 0.283-0.687-0.274-0.687h-2.001c0-3.87 3.13-7 7-7s7 3.13 7 7c0 3.87-3.13 7-7 7-1.627 0-3.126-0.561-4.311-1.498-0.221-0.175 0 0 0 0-0.347-0.31-0.944-0.247-1.339 0.148v0c-0.392 0.392-0.384 1.017-0.18 1.2 0 0-0.183-0.156 0 0 1.57 1.34 3.6 2.15 5.83 2.15 4.97 0 9-4.030 9-9s-4.030-9-9-9c-4.97 0-9 4.030-9 9zM12 13l3.63 2.154c0.359 0.213 0.817 0.105 1.035-0.262l-0.051 0.085c0.213-0.358 0.099-0.818-0.257-1.029l-2.858-1.698v-3.51c0-0.409-0.333-0.74-0.75-0.74v0c-0.414 0-0.75 0.328-0.75 0.759v4.241z"></path>
</svg>
