<!-- Generated by IcoMoon.io -->
<svg version="1.1" xmlns="http://www.w3.org/2000/svg" width="24" height="24" viewBox="0 0 24 24">
<title>instagram</title>
<path d="M12 2c2.716 0 3.056 0.012 4.122 0.060 1.065 0.048 1.792 0.217 2.427 0.465 0.657 0.256 1.215 0.597 1.772 1.153s0.897 1.113 1.153 1.771c0.247 0.637 0.416 1.363 0.465 2.427 0.048 1.067 0.060 1.407 0.060 4.123s-0.012 3.056-0.060 4.122c-0.049 1.065-0.218 1.792-0.465 2.427-0.256 0.657-0.597 1.216-1.153 1.772s-1.114 0.897-1.772 1.153c-0.636 0.248-1.362 0.416-2.427 0.465-1.067 0.048-1.407 0.060-4.122 0.060s-3.057-0.012-4.123-0.060c-1.064-0.049-1.792-0.218-2.427-0.465-0.657-0.256-1.215-0.597-1.771-1.153s-0.897-1.114-1.153-1.772c-0.248-0.636-0.417-1.362-0.465-2.427-0.048-1.067-0.060-1.407-0.060-4.122s0.012-3.056 0.060-4.123c0.048-1.064 0.217-1.791 0.465-2.427 0.256-0.657 0.597-1.215 1.153-1.771s1.113-0.897 1.771-1.153c0.636-0.248 1.363-0.417 2.427-0.465 1.067-0.048 1.407-0.060 4.123-0.060zM19 6.002c0-0.553-0.448-1.002-1-1.002s-1 0.449-1 1.002c0 0.553 0.448 1.002 1 1.002s1-0.449 1-1.002zM16.999 12c0-2.762-2.238-4.999-5-4.999s-5 2.238-5 4.999c0 2.761 2.239 5 5 5s5-2.238 5-5zM14.999 12c0 1.657-1.343 2.999-2.999 2.999s-2.999-1.343-2.999-2.999c0-1.657 1.343-2.999 2.999-2.999s2.999 1.342 2.999 2.999z"></path>
</svg>
