<!-- Generated by IcoMoon.io -->
<svg version="1.1" xmlns="http://www.w3.org/2000/svg" width="24" height="24" viewBox="0 0 24 24">
<title>like</title>
<path d="M22 13.8c0 0.5-0.4 1.1-0.6 1.3 0.2 0.3 0.6 0.6 0.6 1.1 0 0.8-0.5 1.1-0.8 1.4v0c0.2 0.2 0.4 0.6 0.4 1.1s-0.4 2.3-3.4 2.3h-0.4c-2.6 0-3.7-0.2-5.8-0.8-0.6-0.2-1-0.3-1.4-0.5-0.8-0.3-1-0.4-1.9-0.4-0.4 0-0.7-0.1-1-0.2v-8.4h0.1c0.4 0 0.7 0 0.9 0v0c0.2 0 0.6-0.4 0.8-0.7 0.2-0.4 0.7-0.7 1.5-1.4 0.7-0.5 1.8-1.3 2-1.7 0.2-0.5 0.4-0.6 0.4-1.2v-0.4c0-0.6 0-1.5 0.3-1.8 0.8-0.6 1.5-0.5 1.9-0.5 1.1 0 1.9 1.2 2 2.4 0.2 1.9-0.3 2-1 3.6-0.1 0.2 0.8 0.5 0.8 0.5l2-0.2c1.6 0 2.5 0.7 2.5 2 0 0.5-0.3 1-0.5 1.3 0.2 0.3 0.6 0.7 0.6 1.2v0zM6.2 20.8c-0.2 0.1-0.4 0.2-0.7 0.2h-2c-0.8 0-1.5-0.6-1.5-1.4v-7.4c0-0.8 0.7-1.4 1.5-1.4h1.9c0.3 0 0.5 0.1 0.7 0.2l0.1 9.8z"></path>
</svg>
