<!-- Generated by IcoMoon.io -->
<svg version="1.1" xmlns="http://www.w3.org/2000/svg" width="24" height="24" viewBox="0 0 24 24">
<title>linkedin</title>
<path d="M19 19h-3v-5.3c0-0.828-0.672-1.5-1.5-1.5s-1.5 0.672-1.5 1.5v5.3h-3v-9h3v1.2c0.5-0.84 1.59-1.4 2.5-1.4 1.933 0 3.5 1.567 3.5 3.5v5.7zM6.5 8.31c-1 0-1.81-0.81-1.81-1.81s0.81-1.81 1.81-1.81c1 0 1.81 0.81 1.81 1.81s-0.81 1.81-1.81 1.81v0zM8 19h-3v-9h3v9zM20 2h-16c-1.11 0-2 0.89-2 2v16c0 1.105 0.895 2 2 2h16c1.105 0 2-0.895 2-2v-16c0-1.11-0.9-2-2-2v0z"></path>
</svg>
