<svg width="24" height="24" viewBox="0 0 24 24" xmlns="http://www.w3.org/2000/svg">
<path d="M8 2.25C7.06048 2.25 6.14206 2.52862 5.36089 3.05062C4.57973 3.57262 3.97091 4.31455 3.61144 5.18258C3.25196 6.05062 3.15798 7.00576 3.34138 7.92721C3.52477 8.84866 3.97731 9.69502 4.64175 10.3593L7.46958 13.1881C7.61024 13.3288 7.80104 13.4079 8 13.4079C8.19896 13.4079 8.38977 13.3288 8.53043 13.1881L11.3583 10.3593C12.0227 9.69502 12.4752 8.84866 12.6586 7.92721C12.842 7.00576 12.748 6.05062 12.3886 5.18258C12.0291 4.31455 11.4203 3.57262 10.6391 3.05062C9.85795 2.52862 8.93952 2.25 8 2.25ZM6.1943 4.29779C6.72878 3.94063 7.35717 3.75 8 3.75C8.64283 3.75 9.27123 3.94063 9.80571 4.29779C10.3402 4.65495 10.7567 5.16259 11.0027 5.75651C11.2487 6.35042 11.313 7.00394 11.1875 7.6344C11.062 8.26487 10.7524 8.84396 10.2978 9.29844L10.2976 9.29862L8 11.597L5.70243 9.29862L5.70225 9.29844C5.24763 8.84396 4.938 8.26487 4.81252 7.6344C4.68704 7.00394 4.75134 6.35042 4.9973 5.75651C5.24326 5.16259 5.65982 4.65495 6.1943 4.29779ZM8.75 7C8.75 6.58579 8.41421 6.25 8 6.25C7.58579 6.25 7.25 6.58579 7.25 7V7.01C7.25 7.42421 7.58579 7.76 8 7.76C8.41421 7.76 8.75 7.42421 8.75 7.01V7ZM13.3609 11.0506C14.1421 10.5286 15.0605 10.25 16 10.25C16.9395 10.25 17.8579 10.5286 18.6391 11.0506C19.4203 11.5726 20.0291 12.3146 20.3886 13.1826C20.748 14.0506 20.842 15.0058 20.6586 15.9272C20.4752 16.8486 20.0228 17.6949 19.3584 18.3591L19.3583 18.3592L19.3583 18.3593L16.5304 21.1881C16.3898 21.3288 16.199 21.4079 16 21.4079C15.801 21.4079 15.6102 21.3288 15.4696 21.1881L12.6418 18.3593L12.6416 18.3591C11.9772 17.6949 11.5248 16.8486 11.3414 15.9272C11.158 15.0058 11.252 14.0506 11.6114 13.1826C11.9709 12.3146 12.5797 11.5726 13.3609 11.0506ZM16 11.75C15.3572 11.75 14.7288 11.9406 14.1943 12.2978C13.6598 12.655 13.2433 13.1626 12.9973 13.7565C12.7513 14.3504 12.687 15.0039 12.8125 15.6344C12.938 16.2649 13.2476 16.844 13.7023 17.2984L13.7024 17.2986L16 19.597L18.2976 17.2986L18.2978 17.2984C18.7524 16.844 19.062 16.2649 19.1875 15.6344C19.313 15.0039 19.2487 14.3504 19.0027 13.7565C18.7567 13.1626 18.3402 12.655 17.8057 12.2978C17.2712 11.9406 16.6428 11.75 16 11.75ZM16.75 15C16.75 14.5858 16.4142 14.25 16 14.25C15.5858 14.25 15.25 14.5858 15.25 15V15.01C15.25 15.4242 15.5858 15.76 16 15.76C16.4142 15.76 16.75 15.4242 16.75 15.01V15Z"/>
</svg>
