<!-- Generated by IcoMoon.io -->
<svg version="1.1" xmlns="http://www.w3.org/2000/svg" width="24" height="24" viewBox="0 0 24 24">
<title>missing</title>
<path d="M12 2c-5.52 0-10 4.48-10 10s4.48 10 10 10c5.52 0 10-4.48 10-10s-4.48-10-10-10zM12 20c-4.41 0-8-3.59-8-8s3.59-8 8-8c4.41 0 8 3.59 8 8s-3.59 8-8 8zM12 16c-0.552 0-1 0.448-1 1s0.448 1 1 1 1-0.448 1-1c0-0.552-0.448-1-1-1zM12.020 6.7c1.821 0 3.32 1.502 3.32 3.319 0.005 1.133-0.368 1.836-1.157 2.597-0.076 0.073-0.332 0.313-0.328 0.309-0.45 0.426-0.593 0.571-0.725 0.751-0.153 0.21-0.207 0.357-0.207 0.568 0.007 0.487-0.418 0.921-0.904 0.921s-0.911-0.434-0.904-0.917c0-0.596 0.204-1.155 0.555-1.636 0.163-0.223 0.344-0.425 0.579-0.654 0.089-0.087 0.478-0.452 0.363-0.344 0.735-0.694 0.924-0.989 0.919-1.594 0-0.842-0.67-1.512-1.512-1.512s-1.512 0.67-1.512 1.508c0.007 0.487-0.418 0.921-0.904 0.921s-0.911-0.434-0.904-0.921c-0-1.822 1.494-3.316 3.32-3.316z"></path>
</svg>
