<!-- Generated by IcoMoon.io -->
<svg version="1.1" xmlns="http://www.w3.org/2000/svg" width="24" height="24" viewBox="0 0 24 24">
<title>news</title>
<path d="M6 2c-1.1 0-1.99 0.9-1.99 2l-0.010 16c0 1.1 0.89 2 1.99 2h12.010c1.1 0 2-0.9 2-2v-10.998c0-0.554-0.323-1.325-0.712-1.714l-4.576-4.576c-0.393-0.393-1.165-0.712-1.709-0.712h-7.003zM8.997 18c-0.551 0-0.997-0.444-0.997-1v0c0-0.552 0.453-1 0.997-1h6.006c0.551 0 0.997 0.444 0.997 1v0c0 0.552-0.453 1-0.997 1h-6.006zM8.997 14c-0.551 0-0.997-0.444-0.997-1v0c0-0.552 0.453-1 0.997-1h6.006c0.551 0 0.997 0.444 0.997 1v0c0 0.552-0.453 1-0.997 1h-6.006zM13 3.5l5.5 5.5h-4.491c-0.557 0-1.009-0.45-1.009-1.009v-4.491z"></path>
</svg>
