<!-- Generated by IcoMoon.io -->
<svg version="1.1" xmlns="http://www.w3.org/2000/svg" width="24" height="24" viewBox="0 0 24 24">
<title>notifications</title>
<path d="M13 4.5v0.71c2.31 0.65 4 2.79 4 5.29v3.499c0 1.105 0.636 2.637 1.412 3.413l0.176 0.176c0.78 0.78 0.522 1.412-0.588 1.412h-13c-1.105 0-1.364-0.636-0.588-1.412l0.176-0.176c0.78-0.78 1.412-2.308 1.412-3.413v-3.499c0-2.5 1.69-4.64 4-5.29v-0.71c0-0.83 0.67-1.5 1.5-1.5s1.5 0.67 1.5 1.5zM9.050 20h4.9c-0.23 1.14-1.24 2-2.45 2s-2.22-0.86-2.45-2z"></path>
</svg>
