<!-- Generated by IcoMoon.io -->
<svg version="1.1" xmlns="http://www.w3.org/2000/svg" width="24" height="24" viewBox="0 0 24 24">
<title>page</title>
<path d="M8 8c0-0.552 0.451-1 0.991-1h4.018c0.547 0 0.991 0.444 0.991 1 0 0.552-0.451 1-0.991 1h-4.018c-0.547 0-0.991-0.444-0.991-1zM8 12c0-0.552 0.453-1 0.997-1h6.006c0.551 0 0.997 0.444 0.997 1 0 0.552-0.453 1-0.997 1h-6.006c-0.551 0-0.997-0.444-0.997-1zM8 16c0-0.552 0.453-1 0.997-1h6.006c0.551 0 0.997 0.444 0.997 1 0 0.552-0.453 1-0.997 1h-6.006c-0.551 0-0.997-0.444-0.997-1zM18 4.001c-0.053 0.001-0.053 0.001-0.119 0.001-0.090 0.001-0.159 0.001-0.39 0.002-0.318 0.001-0.777 0.002-1.364 0.002-1.032 0.001-2.439 0-4.127-0.001-0.917-0.001-1.889-0.001-2.889-0.002-0.778-0.001-1.278-0.001-2.223-0.002-0.706-0.001-0.722-0.001-0.878-0.001 0.001 0-0.009 16-0.009 16h12v-15.805c0-0.066 0.003-0.11 0.007-0.14-0.183 0.179-0.121 0.097-0.007-0.055zM6 2c0 0 12 0.014 12 0 1.191 0 2 0.891 2 2.195v15.805c0 1.1-0.9 2-2 2h-12.010c-1.1 0-1.99-0.9-1.99-2l0.010-16c0-1.1 0.89-2 1.99-2z"></path>
</svg>
