<!-- Generated by IcoMoon.io -->
<svg version="1.1" xmlns="http://www.w3.org/2000/svg" width="24" height="24" viewBox="0 0 24 24">
<title>pause</title>
<path d="M8.991 19c0.557 0 1.009-0.45 1.009-1.007v-11.986c0-0.556-0.443-1.007-1.009-1.007h-1.981c-0.557 0-1.009 0.45-1.009 1.007v11.986c0 0.556 0.443 1.007 1.009 1.007h1.981zM14 17.993c0 0.556 0.443 1.007 1.009 1.007h1.981c0.557 0 1.009-0.45 1.009-1.007v-11.986c0-0.556-0.443-1.007-1.009-1.007h-1.981c-0.557 0-1.009 0.45-1.009 1.007v11.986z"></path>
</svg>
