<!-- Generated by IcoMoon.io -->
<svg version="1.1" xmlns="http://www.w3.org/2000/svg" width="24" height="24" viewBox="0 0 24 24">
<title>photo</title>
<path d="M21 19v-14c0-1.1-0.9-2-2-2h-14c-1.1 0-2 0.9-2 2v14c0 1.1 0.9 2 2 2h14c1.1 0 2-0.9 2-2v0zM10.356 15.735c0.356 0.428 0.918 0.421 1.253-0.010l2.281-2.939c0.337-0.434 0.878-0.428 1.207 0.011l3.305 4.406c0.33 0.44 0.148 0.797-0.409 0.797h-11.986c-0.556 0-0.732-0.353-0.397-0.784l2.281-2.932c0.337-0.433 0.896-0.439 1.253-0.009l1.212 1.46z"></path>
</svg>
