<!-- Generated by IcoMoon.io -->
<svg version="1.1" xmlns="http://www.w3.org/2000/svg" width="24" height="24" viewBox="0 0 24 24">
<title>pin</title>
<path d="M12 21.9c-0.254 0-0.497-0.108-0.668-0.296-0.267-0.296-6.532-7.289-6.532-12.304 0-3.97 3.23-7.2 7.2-7.2s7.2 3.23 7.2 7.2c0 5.015-6.265 12.008-6.532 12.304-0.171 0.188-0.414 0.296-0.668 0.296zM12 3.9c-2.978 0-5.4 2.422-5.4 5.4 0 3.183 3.439 7.971 5.397 10.32 1.574-1.899 5.402-6.869 5.402-10.32 0-2.978-2.421-5.4-5.399-5.4zM12 10.5c-0.828 0-1.5-0.672-1.5-1.5s0.672-1.5 1.5-1.5c0.828 0 1.5 0.672 1.5 1.5s-0.672 1.5-1.5 1.5z"></path>
</svg>
