<!-- Generated by IcoMoon.io -->
<svg version="1.1" xmlns="http://www.w3.org/2000/svg" width="24" height="24" viewBox="0 0 24 24">
<title>podcasts</title>
<path fill="#555" d="M4.002 6c-0.554 0-1.002 0.444-1.002 1v0c0 0.552 0.456 1 1.002 1h9.995c0.554 0 1.002-0.444 1.002-1v0c0-0.552-0.456-1-1.002-1h-9.995zM4.002 10c-0.554 0-1.002 0.444-1.002 1v0c0 0.552 0.456 1 1.002 1h9.995c0.554 0 1.002-0.444 1.002-1v0c0-0.552-0.456-1-1.002-1h-9.995zM10.003 16c0.551 0 0.997-0.444 0.997-1v0c0-0.552-0.453-1-0.997-1h-6.006c-0.551 0-0.997 0.444-0.997 1v0c0 0.552 0.453 1 0.997 1h6.006zM17 14.18c-0.31-0.11-0.65-0.18-1-0.18-1.66 0-3 1.34-3 3s1.34 3 3 3c1.66 0 3-1.34 3-3v-9h2.001c0.552 0 0.999-0.444 0.999-1v0c0-0.552-0.444-1-1-1h-2.5c-0.829 0-1.5 0.669-1.5 1.5v6.68z"></path>
</svg>
