<!-- Generated by IcoMoon.io -->
<svg version="1.1" xmlns="http://www.w3.org/2000/svg" width="24" height="24" viewBox="0 0 24 24">
<title>receipt</title>
<path d="M7.002 16.794c-0.554 0-1.002-0.444-1.002-1v0c0-0.552 0.456-1 1.002-1h9.995c0.554 0 1.002 0.444 1.002 1v0c0 0.552-0.456 1-1.002 1h-9.995zM7.002 12.794c-0.554 0-1.002-0.444-1.002-1v0c0-0.552 0.456-1 1.002-1h9.995c0.554 0 1.002 0.444 1.002 1v0c0 0.552-0.456 1-1.002 1h-9.995zM7.002 8.794c-0.554 0-1.002-0.444-1.002-1v0c0-0.552 0.456-1 1.002-1h9.995c0.554 0 1.002 0.444 1.002 1v0c0 0.552-0.456 1-1.002 1h-9.995zM4.5 20.294l1.152 1.152c0.192 0.192 0.508 0.187 0.696 0l1.152-1.152 1.152 1.152c0.192 0.192 0.508 0.187 0.696 0l1.152-1.152 1.152 1.152c0.192 0.192 0.508 0.187 0.696 0l1.152-1.152 1.152 1.152c0.192 0.192 0.508 0.187 0.696 0l1.152-1.152 1.152 1.152c0.192 0.192 0.508 0.187 0.696 0l1.152-1.152 1.152 1.152c0.192 0.192 0.348 0.123 0.348-0.146v-19.011c0-0.273-0.161-0.334-0.348-0.146l-1.152 1.152-1.152-1.152c-0.192-0.192-0.508-0.187-0.696 0l-1.152 1.152-1.152-1.152c-0.192-0.192-0.508-0.187-0.696 0l-1.152 1.152-1.152-1.152c-0.192-0.192-0.508-0.187-0.696 0l-1.152 1.152-1.152-1.152c-0.192-0.192-0.508-0.187-0.696 0l-1.152 1.152-1.152-1.152c-0.192-0.192-0.508-0.187-0.696 0l-1.152 1.152-1.152-1.152c-0.192-0.192-0.348-0.123-0.348 0.146v19.011c0 0.273 0.161 0.334 0.348 0.146l1.152-1.152z"></path>
</svg>
