<!-- Generated by IcoMoon.io -->
<svg version="1.1" xmlns="http://www.w3.org/2000/svg" width="24" height="24" viewBox="0 0 24 24">
<title>refresh</title>
<path d="M19.29 4.71c0.391-0.391 0.71-0.261 0.71 0.293v4.994c0 0.565-0.449 1.003-1.003 1.003h-4.994c-0.565 0-0.685-0.318-0.293-0.71l2.534-2.534c-1.101-1.101-2.613-1.757-4.243-1.757-3.314 0-6 2.686-6 6s2.686 6 6 6c2.335 0 4.427-1.346 5.417-3.416 0.238-0.498 0.835-0.709 1.334-0.471s0.709 0.835 0.471 1.334c-1.319 2.759-4.108 4.554-7.221 4.554-4.418 0-8-3.582-8-8s3.582-8 8-8c2.173 0 4.189 0.875 5.658 2.342l1.633-1.633z"></path>
</svg>
