<?xml version="1.0" ?><svg height="24" viewBox="0 0 24 24" width="24" xmlns="http://www.w3.org/2000/svg"><path d="M7.41421356,19 L9.70710678,21.2928932 L8.29289322,22.7071068 L3.58578644,18 L8.29289322,13.2928932 L9.70710678,14.7071068 L7.41421356,17 L16,17 C17.6568542,17 19,15.6568542 19,14 L19,11 L21,11 L21,14 C21,16.7614237 18.7614237,19 16,19 L7.41421356,19 Z M16.5867862,5.00099979 L14.2928932,2.70710678 L15.7071068,1.29289322 L20.4142136,6 L15.7071068,10.7071068 L14.2928932,9.29289322 L16.5847866,7.00099979 L8,7.00099979 C6.34314575,7.00099979 5,8.34414554 5,10.0009998 L5,13.0009998 L3,13.0009998 L3,10.0009998 C3,7.23957604 5.23857625,5.00099979 8,5.00099979 L16.5867862,5.00099979 Z" fill-rule="evenodd"/></svg>