<!-- Generated by IcoMoon.io -->
<svg version="1.1" xmlns="http://www.w3.org/2000/svg" width="24" height="24" viewBox="0 0 24 24">
<title>restaurant</title>
<path d="M10.93 10.51l-7.020-7.010c-1.56 1.56-1.56 4.090 0 5.66l4.19 4.18 2.83-2.83zM20.15 10.15c1.91-1.91 2.28-4.65 0.81-6.12-1.46-1.46-4.2-1.1-6.12 0.81-1.59 1.59-2.090 3.74-1.38 5.27l-9.058 9.058c-0.388 0.388-0.389 1.015 0.003 1.407v0c0.389 0.389 1.019 0.392 1.416-0.004l6.179-6.161 6.17 6.17c0.392 0.392 1.023 0.397 1.415 0.005v0c0.389-0.389 0.392-1.018-0.005-1.415l-6.17-6.17 1.47-1.47c1.53 0.71 3.68 0.21 5.27-1.38z"></path>
</svg>
