<svg width="24" height="24" viewBox="0 0 24 24"  xmlns="http://www.w3.org/2000/svg">
<path d="M15.3735 3.62248C14.2733 3.17946 13.0967 2.95747 11.9107 2.96919C10.7248 2.98091 9.55275 3.2261 8.46155 3.69078C7.37036 4.15545 6.38137 4.8305 5.55106 5.67738C4.72075 6.52426 4.06538 7.52639 3.62236 8.62656C2.72764 10.8484 2.75221 13.3347 3.69065 15.5385C4.26993 16.8988 5.16812 18.0827 6.29336 19.0001H3.99997C3.44769 19.0001 2.99997 19.4478 2.99997 20.0001C2.99997 20.5524 3.44769 21.0001 3.99997 21.0001H8.99997C9.55226 21.0001 9.99997 20.5524 9.99997 20.0001V19.4734C10.0003 19.458 10.0003 19.4427 9.99997 19.4275V15.0001C9.99997 14.4478 9.55226 14.0001 8.99997 14.0001C8.44769 14.0001 7.99997 14.4478 7.99997 15.0001V17.7828C6.91597 17.033 6.05538 15.9869 5.53076 14.7549C4.80013 13.0392 4.78101 11.1035 5.47759 9.37363C5.8225 8.5171 6.33274 7.73689 6.97918 7.07755C7.62562 6.41821 8.39559 5.89265 9.24514 5.53088C10.0947 5.16911 11.0072 4.97822 11.9305 4.96909C12.8538 4.95997 13.7699 5.1328 14.6264 5.47771C15.1387 5.68401 15.7213 5.43594 15.9276 4.92363C16.1339 4.41132 15.8858 3.82878 15.3735 3.62248ZM19.37 7.16016C19.37 6.60787 18.9223 6.16016 18.37 6.16016C17.8177 6.16016 17.37 6.60787 17.37 7.16016V7.17016C17.37 7.72244 17.8177 8.17016 18.37 8.17016C18.9223 8.17016 19.37 7.72244 19.37 7.17016V7.16016ZM13 18.9399C13.5523 18.9399 14 19.3877 14 19.9399V19.9499C14 20.5022 13.5523 20.9499 13 20.9499C12.4477 20.9499 12 20.5022 12 19.9499V19.9399C12 19.3877 12.4477 18.9399 13 18.9399ZM17.84 18.3701C17.84 17.8178 17.3923 17.3701 16.84 17.3701C16.2877 17.3701 15.84 17.8178 15.84 18.3701V18.3801C15.84 18.9324 16.2877 19.3801 16.84 19.3801C17.3923 19.3801 17.84 18.9324 17.84 18.3801V18.3701ZM19.37 14.1001C19.9223 14.1001 20.37 14.5478 20.37 15.1001V15.1101C20.37 15.6624 19.9223 16.1101 19.37 16.1101C18.8177 16.1101 18.37 15.6624 18.37 15.1101V15.1001C18.37 14.5478 18.8177 14.1001 19.37 14.1001ZM20.9399 11C20.9399 10.4477 20.4922 10 19.9399 10C19.3877 10 18.9399 10.4477 18.9399 11V11.01C18.9399 11.5623 19.3877 12.01 19.9399 12.01C20.4922 12.01 20.9399 11.5623 20.9399 11.01V11Z"/>
</svg>
