<!-- Generated by IcoMoon.io -->
<svg version="1.1" xmlns="http://www.w3.org/2000/svg" width="24" height="24" viewBox="0 0 24 24">
<title>rss-feed</title>
<path d="M6.18 20c1.204 0 2.18-0.976 2.18-2.18s-0.976-2.18-2.18-2.18c-1.204 0-2.18 0.976-2.18 2.18s0.976 2.18 2.18 2.18zM4 5.358v0.903c0 0.557 0.445 1.021 1.005 1.048 0 0-0.321-0.025 0.016 0.001 6.22 0.494 11.182 5.459 11.67 11.681 0.026 0.333 0.001 0.016 0.001 0.016 0.021 0.548 0.48 0.993 1.044 0.993h0.819c0.555 0 0.996-0.44 0.976-0.965 0 0 0.020 0.319 0 0-0.478-7.8-6.708-14.051-14.5-14.561-0.341-0.022-0.033-0.002-0.033-0.002-0.551-0.017-0.998 0.413-0.998 0.886 0 0 0-0.306 0 0zM4 11.924c0 0.555 0.445 1.028 1.001 1.076 0 0-0.316-0.046 0.016 0.002 3.106 0.449 5.563 2.923 5.988 6.036 0.043 0.314 0 0 0 0 0.036 0.531 0.507 0.961 1.071 0.961h0.819c0.555 0 0.99-0.448 0.956-0.994 0 0 0.032 0.322-0.001-0.008-0.468-4.659-4.162-8.363-8.817-8.845-0.339-0.035-0.033-0.003-0.033-0.003-0.552-0.028-1 0.392-1 0.956v0.819z"></path>
</svg>
