<!-- Generated by IcoMoon.io -->
<svg version="1.1" xmlns="http://www.w3.org/2000/svg" width="24" height="24" viewBox="0 0 24 24">
<title>rsvp</title>
<path d="M18 4h1c1.1 0 2 0.9 2 2v14c0 1.1-0.9 2-2 2h-14c-1.11 0-2-0.9-2-2l0.010-14c0-1.1 0.88-2 1.99-2h1v-1c0-0.556 0.448-1 1-1 0.556 0 1 0.448 1 1v1h8v-1c0-0.556 0.448-1 1-1 0.556 0 1 0.448 1 1v1zM19 20v-11h-14v11h14zM11.903 17.069c-0.266 0-0.52-0.105-0.707-0.293l-1.903-1.904c-0.391-0.391-0.391-1.024 0-1.415 0.39-0.389 1.023-0.39 1.414 0.001l1.196 1.196 2.362-2.361c0.391-0.391 1.024-0.391 1.414 0 0.391 0.39 0.391 1.023 0 1.414l-3.069 3.069c-0.187 0.188-0.441 0.293-0.707 0.293z"></path>
</svg>
