<!-- Generated by IcoMoon.io -->
<svg version="1.1" xmlns="http://www.w3.org/2000/svg" width="24" height="24" viewBox="0 0 24 24">
<title>search</title>
<path d="M15.314 14.567l-0.294-0.284c0.152-0.177 0.296-0.362 0.43-0.554 0.771-1.108 1.221-2.451 1.221-3.894 0-3.775-3.060-6.835-6.835-6.835s-6.835 3.060-6.835 6.835c0 3.775 3.060 6.835 6.835 6.835 1.693 0 3.249-0.62 4.448-1.651l0.284 0.294v0.193c0 0.352 0.2 0.837 0.448 1.085l4.133 4.125c0.374 0.373 0.979 0.373 1.35 0.002l0.22-0.22c0.372-0.372 0.376-0.971-0.002-1.35l-4.125-4.133c-0.247-0.248-0.729-0.448-1.085-0.448h-0.193zM5.103 9.835c0-2.618 2.114-4.732 4.732-4.732s4.732 2.114 4.732 4.732c0 2.618-2.114 4.732-4.732 4.732s-4.732-2.114-4.732-4.732z"></path>
</svg>
