<!-- Generated by IcoMoon.io -->
<svg version="1.1" xmlns="http://www.w3.org/2000/svg" width="24" height="24" viewBox="0 0 24 24">
<title>settings</title>
<path d="M19.43 12.98c0.040-0.32 0.070-0.64 0.070-0.98s-0.030-0.66-0.070-0.98l2.11-1.65c0.19-0.15 0.24-0.42 0.12-0.64l-2-3.46c-0.12-0.22-0.39-0.3-0.61-0.22l-2.49 1c-0.52-0.4-1.080-0.73-1.69-0.98l-0.38-2.65c-0.030-0.24-0.24-0.42-0.49-0.42h-4c-0.25 0-0.46 0.18-0.49 0.42l-0.38 2.65c-0.61 0.25-1.17 0.59-1.69 0.98l-2.49-1c-0.23-0.090-0.49 0-0.61 0.22l-2 3.46c-0.13 0.22-0.070 0.49 0.12 0.64l2.11 1.65c-0.040 0.32-0.070 0.65-0.070 0.98s0.030 0.66 0.070 0.98l-2.11 1.65c-0.19 0.15-0.24 0.42-0.12 0.64l2 3.46c0.12 0.22 0.39 0.3 0.61 0.22l2.49-1c0.52 0.4 1.080 0.73 1.69 0.98l0.38 2.65c0.030 0.24 0.24 0.42 0.49 0.42h4c0.25 0 0.46-0.18 0.49-0.42l0.38-2.65c0.61-0.25 1.17-0.59 1.69-0.98l2.49 1c0.23 0.090 0.49 0 0.61-0.22l2-3.46c0.12-0.22 0.070-0.49-0.12-0.64l-2.11-1.65zM8.5 12c0-1.93 1.57-3.5 3.5-3.5s3.5 1.57 3.5 3.5c0 1.93-1.57 3.5-3.5 3.5s-3.5-1.57-3.5-3.5z"></path>
</svg>
