<!-- Generated by IcoMoon.io -->
<svg version="1.1" xmlns="http://www.w3.org/2000/svg" width="24" height="24" viewBox="0 0 24 24">
<title>share-android</title>
<path d="M18 16.080c-0.76 0-1.44 0.3-1.96 0.77l-7.13-4.15c0.050-0.23 0.090-0.46 0.090-0.7s-0.040-0.47-0.090-0.7l7.050-4.11c0.54 0.5 1.25 0.81 2.040 0.81 1.66 0 3-1.34 3-3s-1.34-3-3-3c-1.66 0-3 1.34-3 3 0 0.24 0.040 0.47 0.090 0.7l-7.050 4.11c-0.54-0.5-1.25-0.81-2.040-0.81-1.66 0-3 1.34-3 3s1.34 3 3 3c0.79 0 1.5-0.31 2.040-0.81l7.12 4.16c-0.050 0.21-0.080 0.43-0.080 0.65 0 1.61 1.31 2.92 2.92 2.92s2.92-1.31 2.92-2.92c0-1.61-1.31-2.92-2.92-2.92v0z"></path>
</svg>
