<!-- Generated by IcoMoon.io -->
<svg version="1.1" xmlns="http://www.w3.org/2000/svg" width="24" height="24" viewBox="0 0 24 24">
<title>share</title>
<path d="M13.001 6.584l1.882 1.882c0.391 0.391 1.021 0.393 1.413-0.002 0.389-0.392 0.392-1.023-0.001-1.416l-3.588-3.588c-0.39-0.39-1.019-0.393-1.412 0l-3.588 3.588c-0.39 0.39-0.393 1.019-0.001 1.411 0.389 0.389 1.023 0.389 1.413 0l1.882-1.875v7.168c0 0.553 0.444 1.002 1 1.002 0.552 0 1-0.439 1-1.002v-7.168zM5 10.998c0-0.551-0.444-0.998-1-0.998-0.552 0-1 0.445-1 0.996v9.009c0 0.55 0.445 0.996 0.993 0.996h16.013c0.549 0 0.993-0.445 0.993-0.996v-9.009c0-0.55-0.444-0.996-1-0.996-0.552 0-1 0.446-1 0.998v8.002h-14v-8.002z"></path>
</svg>
