<!-- Generated by IcoMoon.io -->
<svg version="1.1" xmlns="http://www.w3.org/2000/svg" width="24" height="24" viewBox="0 0 24 24">
<title>sidebar</title>
<path d="M20.007 18c0.549 0 0.993-0.444 0.993-1v0c0-0.552-0.445-1-0.993-1h-16.013c-0.549 0-0.993 0.444-0.993 1v0c0 0.552 0.445 1 0.993 1h16.013zM20.007 13c0.549 0 0.993-0.444 0.993-1v0c0-0.552-0.445-1-0.993-1h-16.013c-0.549 0-0.993 0.444-0.993 1v0c0 0.552 0.445 1 0.993 1h16.013zM3 7c0 0.552 0.445 1 0.993 1h16.013c0.549 0 0.993-0.444 0.993-1v0c0-0.552-0.445-1-0.993-1h-16.013c-0.549 0-0.993 0.444-0.993 1v0z"></path>
</svg>
