<svg version="1.1" xmlns="http://www.w3.org/2000/svg" width="24" height="24" viewBox="0 0 24 24">
<title>sleep</title>
<path d="M10.6339 5.49241C9.91458 5.64375 9.22225 5.9141 8.58637 6.29529C7.55508 6.91351 6.71095 7.80008 6.14402 8.86043C5.57709 9.92078 5.30864 11.1151 5.36728 12.3161C5.42593 13.5171 5.80948 14.6796 6.47702 15.6797C7.14457 16.6797 8.07106 17.4798 9.15768 17.9946C10.2443 18.5094 11.4503 18.7196 12.647 18.6027C13.8437 18.4859 14.9862 18.0464 15.9527 17.3311C16.4703 16.948 16.927 16.4935 17.3105 15.9835C16.3414 16.0957 15.3523 16.0022 14.4097 15.7006C12.8709 15.2082 11.5532 14.1922 10.6858 12.8291C9.81836 11.4659 9.45603 9.84196 9.66177 8.23941C9.78776 7.25801 10.1219 6.32265 10.6339 5.49241ZM12.0987 3.85667H12.0991H12.0998H12.1004H12.101H12.1017H12.1023H12.1029H12.1036H12.1042H12.1048H12.1055H12.1061H12.1067H12.1074H12.108H12.1086H12.1093H12.1099H12.1105H12.1112H12.1118H12.1124H12.1131H12.1137H12.1143H12.1149H12.1156H12.1162H12.1168H12.1175H12.1181H12.1187H12.1194H12.12H12.1206H12.1213H12.1219H12.1225H12.1232H12.1238H12.1244H12.1251H12.1257H12.1263H12.1269H12.1276H12.1282H12.1288H12.1295H12.1301H12.1307H12.1314H12.132H12.1326H12.1333H12.1339H12.1345H12.1352H12.1358H12.1364H12.1371H12.1377H12.1383H12.1389H12.1396H12.1402H12.1408H12.1415H12.1421H12.1427H12.1434H12.144H12.1446H12.1453H12.1459H12.1465H12.1471H12.1478H12.1484H12.149H12.1497H12.1503H12.1509H12.1516H12.1522H12.1528H12.1535H12.1541H12.1547H12.1553H12.156H12.1566H12.1572H12.1579H12.1585H12.1591H12.1598H12.1604H12.161H12.1617H12.1623H12.1629H12.1635H12.1642H12.1648H12.1654H12.1661H12.1667H12.1673H12.168H12.1686H12.1692H12.1698H12.1705H12.1711H12.1717H12.1724H12.173H12.1736H12.1743H12.1749H12.1755H12.1761H12.1768H12.1774H12.178H12.1787H12.1793H12.1799H12.1806H12.1812H12.1818H12.1824H12.1831H12.1837H12.1843H12.185H12.1856H12.1862H12.1869H12.1875H12.1881H12.1887H12.1894H12.19H12.1906H12.1913H12.1919H12.1925H12.1932H12.1938H12.1944H12.195H12.1957H12.1963H12.1969H12.1976H12.1982H12.1988H12.1994H12.2001H12.2007H12.2013H12.202H12.2026H12.2032H12.2038H12.2045H12.2051H12.2057H12.2064H12.207H12.2076H12.2083H12.2089H12.2095H12.2101H12.2108H12.2114H12.212H12.2127H12.2133H12.2139H12.2145H12.2152H12.2158H12.2164H12.2171H12.2177H12.2183H12.2189H12.2196H12.2202H12.2208H12.2215H12.2221H12.2227H12.2233H12.224H12.2246H12.2252H12.2259H12.2265H12.2271H12.2277H12.2284H12.229H12.2296H12.2303H12.2309H12.2315H12.2321H12.2328H12.2334H12.234H12.2347H12.2353H12.2359H12.2365H12.2372H12.2378H12.2384H12.2391H12.2397H12.2403H12.2409H12.2416H12.2422H12.2428H12.2435H12.2441H12.2447H12.2453H12.246H12.2466H12.2472H12.2478H12.2485H12.2491H12.2497H12.2504H12.251H12.2516H12.2522H12.2529H12.2535H12.2541H12.2548H12.2554H12.256H12.2566H12.2573H12.2579H12.2585H12.2591H12.2598H12.2604H12.261H12.2617H12.2623H12.2629H12.2635H12.2642H12.2648H12.2654H12.266H12.2667H12.2673H12.2679H12.2686H12.2692H12.2698H12.2704H12.2711H12.2717H12.2723H12.2729H12.2736H12.2742H12.2748H12.2755H12.2761H12.2767H12.2773H12.278H12.2786H12.2792H12.2798H12.2805H12.2811H12.2817H12.2824H12.283H12.2836H12.2842H12.2849H12.2855H12.2861H12.2867H12.2874H12.288H12.2886H12.2892H12.2899H12.2905H12.2911H12.2918H12.2924H12.293H12.2936H12.2943H12.2949H12.2955H12.2961H12.2968H12.2974H12.298H12.2986H12.2993H12.2999H12.3005H12.3011H12.3018H12.3024H12.303H12.3037H12.3043H12.3049H12.3055H12.3062H12.3068H12.3074H12.308H12.3087H12.3093H12.3099H12.3105H12.3112H12.3118H12.3124H12.313H12.3137H12.3143H12.3149H12.3155H12.3162H12.3168H12.3174H12.318H12.3187H12.3193H12.3199H12.3206H12.3212H12.3218H12.3224C12.6308 3.85667 12.9077 4.04541 13.0205 4.33241C13.1332 4.61942 13.0588 4.94619 12.833 5.15609C11.9063 6.01716 11.3106 7.17573 11.1496 8.43041C10.9885 9.68509 11.2722 10.9565 11.9513 12.0238C12.6304 13.091 13.662 13.8865 14.8668 14.272C16.0716 14.6575 17.3734 14.6086 18.546 14.1339C18.8263 14.0204 19.1473 14.0863 19.3602 14.3012C19.573 14.516 19.6361 14.8376 19.52 15.1169C18.9543 16.478 18.0298 17.6599 16.8451 18.5368C15.6603 19.4136 14.2597 19.9524 12.7928 20.0956C11.3258 20.2389 9.84748 19.9813 8.51547 19.3502C7.18345 18.7192 6.04772 17.7384 5.22943 16.5124C4.41113 15.2865 3.94096 13.8615 3.86907 12.3893C3.79718 10.9171 4.12626 9.453 4.82122 8.15318C5.51618 6.85337 6.55095 5.76658 7.81514 5.00874C9.07933 4.25091 10.5255 3.85045 11.9995 3.8501C12.0328 3.85009 12.066 3.85231 12.0987 3.85667ZM16.1065 4.67805C16.5207 4.67805 16.8565 5.01384 16.8565 5.42805C16.8565 5.66481 16.9506 5.89186 17.118 6.05927C17.2854 6.22668 17.5124 6.32073 17.7492 6.32073C18.1634 6.32073 18.4992 6.65652 18.4992 7.07073C18.4992 7.48494 18.1634 7.82073 17.7492 7.82073C17.5124 7.82073 17.2854 7.91478 17.118 8.08219C16.9506 8.2496 16.8565 8.47666 16.8565 8.71341C16.8565 9.12762 16.5207 9.46341 16.1065 9.46341C15.6923 9.46341 15.3565 9.12762 15.3565 8.71341C15.3565 8.47666 15.2625 8.2496 15.0951 8.08219C14.9276 7.91478 14.7006 7.82073 14.4638 7.82073C14.0496 7.82073 13.7138 7.48494 13.7138 7.07073C13.7138 6.65652 14.0496 6.32073 14.4638 6.32073C14.7006 6.32073 14.9276 6.22668 15.0951 6.05927C15.2625 5.89186 15.3565 5.66481 15.3565 5.42805C15.3565 5.01384 15.6923 4.67805 16.1065 4.67805ZM19.3205 10.3561C19.3205 9.94187 18.9847 9.60609 18.5705 9.60609C18.1563 9.60609 17.8205 9.94187 17.8205 10.3561V10.4274H17.7492C17.335 10.4274 16.9992 10.7632 16.9992 11.1774C16.9992 11.5916 17.335 11.9274 17.7492 11.9274H17.8205V11.9988C17.8205 12.413 18.1563 12.7488 18.5705 12.7488C18.9847 12.7488 19.3205 12.413 19.3205 11.9988V11.9274H19.3919C19.8061 11.9274 20.1419 11.5916 20.1419 11.1774C20.1419 10.7632 19.8061 10.4274 19.3919 10.4274H19.3205V10.3561Z"/>
</svg>
