<!-- Generated by IcoMoon.io -->
<svg version="1.1" xmlns="http://www.w3.org/2000/svg" width="24" height="24" viewBox="0 0 24 24">
<title>stamp</title>
<path d="M19.8 20c0.1 0 0.2 0.1 0.2 0.2v1.6c0 0.1-0.1 0.2-0.2 0.2h-15.6c-0.1 0-0.2-0.1-0.2-0.2v-1.6c0-0.1 0.1-0.2 0.2-0.2h15.6zM20 15.007c0.6 0 1 0.4 1 1v2.8c0 0.1-0.1 0.2-0.2 0.2h-17.6c-0.1 0-0.2-0.1-0.2-0.2v-2.8c0-0.6 0.4-1 1-1h5c0.6 0 1-0.4 1-1v-4c0-0.3-0.1-0.6-0.4-0.8-1-0.7-1.6-1.9-1.6-3.2 0-2.5 2.3-4.5 5-3.9 1.4 0.3 2.6 1.5 2.9 2.9 0.4 1.7-0.3 3.3-1.5 4.2-0.2 0.1-0.4 0.4-0.4 0.7v4.1c0 0.6 0.4 1 1 1h5z"></path>
</svg>
