<!-- Generated by IcoMoon.io -->
<svg version="1.1" xmlns="http://www.w3.org/2000/svg" width="24" height="24" viewBox="0 0 24 24">
<title>turn-off</title>
<path d="M12 3c-0.552 0-1 0.456-1 0.995v8.009c0 0.55 0.444 0.995 1 0.995v0c0.552 0 1-0.456 1-0.995v-8.009c0-0.55-0.444-0.995-1-0.995v0zM17.12 5.88c-0.392 0.392-0.375 1.011 0.024 1.395 0 0-0.16-0.184 0.094 0.1 1.096 1.226 1.762 2.846 1.762 4.625 0 3.87-3.13 7-7 7s-7-3.13-7-7c0-1.755 0.648-3.355 1.714-4.581 0.264-0.304 0.145-0.156 0.145-0.156 0.398-0.377 0.408-0.996 0.016-1.388v0c-0.389-0.389-1.030-0.4-1.426-0.011 0 0 0.031-0.060-0.274 0.293-1.356 1.57-2.175 3.607-2.175 5.843 0 4.97 4.030 9 9 9s9-4.030 9-9c0-2.292-0.861-4.374-2.278-5.96-0.277-0.31-0.168-0.178-0.168-0.178-0.4-0.382-1.039-0.377-1.434 0.018v0z"></path>
</svg>
