<!-- Generated by IcoMoon.io -->
<svg version="1.1" xmlns="http://www.w3.org/2000/svg" width="24" height="24" viewBox="0 0 24 24">
<title>tweet</title>
<path d="M22.46 5.5c-0.77 0.35-1.6 0.58-2.46 0.69 0.88-0.53 1.56-1.37 1.88-2.38-0.83 0.5-1.75 0.85-2.72 1.050-0.79-0.86-1.9-1.36-3.16-1.36-2.35 0-4.27 1.92-4.27 4.29 0 0.34 0.040 0.67 0.11 0.98-3.56-0.18-6.73-1.89-8.84-4.48-0.37 0.63-0.58 1.37-0.58 2.15 0 1.49 0.75 2.81 1.91 3.56-0.71 0-1.37-0.2-1.95-0.5 0 0 0 0 0 0.030 0 2.080 1.48 3.82 3.44 4.21-0.36 0.1-0.74 0.15-1.13 0.15-0.27 0-0.54-0.030-0.8-0.080 0.54 1.69 2.11 2.95 4 2.98-1.46 1.16-3.31 1.84-5.33 1.84-0.34 0-0.68-0.020-1.020-0.060 1.9 1.22 4.16 1.93 6.58 1.93 7.88 0 12.21-6.54 12.21-12.21 0-0.19 0-0.37-0.010-0.56 0.84-0.6 1.56-1.36 2.14-2.23v0z"></path>
</svg>
