<!-- Generated by IcoMoon.io -->
<svg version="1.1" xmlns="http://www.w3.org/2000/svg" width="24" height="24" viewBox="0 0 24 24">
<title>unfriend</title>
<path d="M19.015 8.016c-0.266 0-0.52-0.105-0.707-0.293l-1.903-1.904c-0.391-0.391-0.391-1.024 0-1.415 0.39-0.389 1.023-0.39 1.414 0.001l1.196 1.196 2.362-2.361c0.391-0.391 1.024-0.391 1.414 0 0.391 0.39 0.391 1.023 0 1.414l-3.069 3.069c-0.187 0.188-0.441 0.293-0.707 0.293zM9 10c0 1.657 1.343 3 3 3s3-1.343 3-3c0-1.657-1.343-3-3-3s-3 1.343-3 3zM21 11c-0.553 0-1 0.448-1 1 0 2.034-0.77 3.888-2.025 5.301-0.258-1.861-4.041-2.801-5.975-2.801s-5.717 0.94-5.975 2.801c-1.255-1.413-2.025-3.267-2.025-5.301 0-4.411 3.589-8 8-8 0.552 0 1-0.448 1-1s-0.448-1-1-1c-5.514 0-10 4.486-10 10s4.486 10 10 10c5.514 0 10-4.486 10-10 0-0.552-0.447-1-1-1z"></path>
</svg>
