<!-- Generated by IcoMoon.io -->
<svg version="1.1" xmlns="http://www.w3.org/2000/svg" width="24" height="24" viewBox="0 0 24 24">
<title>users</title>
<path fill="#555" d="M16.5 12c1.38 0 2.49-1.12 2.49-2.5s-1.11-2.5-2.49-2.5c-1.38 0-2.5 1.12-2.5 2.5s1.12 2.5 2.5 2.5v0zM9 11c1.66 0 2.99-1.34 2.99-3s-1.33-3-2.99-3c-1.66 0-3 1.34-3 3s1.34 3 3 3v0zM11 16.75v1.257c0 0.549 0.445 0.993 0.996 0.993h9.009c0.55 0 0.996-0.455 0.996-0.993v-1.257c0-1.83-3.67-2.75-5.5-2.75s-5.5 0.92-5.5 2.75zM2 16.5v1.498c0 0.554 0.438 1.002 1.003 1.002h5.997v-2.25c0-0.85 0.33-2.34 2.37-3.47-0.87-0.18-1.71-0.28-2.37-0.28-2.33 0-7 1.17-7 3.5z"></path>
</svg>
