<?xml version="1.0" encoding="UTF-8" standalone="no"?>
<svg width="20px" height="20px" viewBox="0 0 20 20" version="1.1" xmlns="http://www.w3.org/2000/svg" xmlns:xlink="http://www.w3.org/1999/xlink">
    <path d="M2,0 L18,0 C19.1045695,0 20,0.8954305 20,2 L20,18 C20,19.1045695 19.1045695,20 18,20 L12.85,20 C12.5,19.92 12.5,19.24 12.5,19 L12.5,16.26 C12.5,15.33 12.17,14.72 11.81,14.41 C14.04,14.16 16.38,13.32 16.38,9.5 C16.38,8.39 16,7.5 15.35,6.79 C15.45,6.54 15.8,5.5 15.25,4.15 C15.25,4.15 14.41,3.88 12.5,5.17 C11.71,4.95 10.85,4.84 10,4.84 C9.15,4.84 8.29,4.95 7.5,5.17 C5.59,3.88 4.75,4.15 4.75,4.15 C4.2,5.5 4.55,6.54 4.65,6.79 C4,7.5 3.62,8.39 3.62,9.5 C3.62,13.31 5.95,14.17 8.17,14.42 C7.89,14.67 7.63,15.11 7.54,15.76 C6.97,16 5.5,16.45 4.63,14.93 C4.63,14.93 4.1,13.97 3.1,13.9 C3.1,13.9 2.12,13.88 3,14.5 C3,14.5 3.68,14.81 4.14,15.97 C4.14,15.97 4.73,17.91 7.5,17.31 L7.5,19 C7.5,19.24 7.5,19.92 7.14,20 L2,20 C0.8954305,20 0,19.1045695 0,18 L0,2 C-2.22044605e-16,0.8954305 0.8954305,0 2,0 L2,0 Z" fill="#FFF"></path>
</svg>