<?xml version="1.0" encoding="UTF-8" standalone="no"?>
<svg width="104px" height="51px" viewBox="0 0 104 51" version="1.1" xmlns="http://www.w3.org/2000/svg" xmlns:xlink="http://www.w3.org/1999/xlink">
    <!-- Generator: sketchtool 3.6.1 (26313) - http://www.bohemiancoding.com/sketch -->
    <title>icon-tutorial-loyalty-app</title>
    <desc>Created with sketchtool.</desc>
    <defs></defs>
    <g id="A-Landing" stroke="none" stroke-width="1" fill="none" fill-rule="evenodd">
        <g id="A01-Home-(Desktop)" transform="translate(-1108.000000, -3391.000000)" fill="#FFFFFF">
            <g id="Group-5" transform="translate(0.000000, 3132.000000)">
                <g id="Group-16" transform="translate(135.000000, 77.000000)">
                    <g id="Group-62" transform="translate(0.000000, 117.000000)">
                        <g id="Group-13" transform="translate(900.000000, 0.000000)">
                            <g id="Group-11">
                                <g id="icon-tutorial-loyalty-app" transform="translate(73.000000, 65.000000)">
                                    <g id="Group-58" transform="translate(0.000000, 29.000000)">
                                        <circle id="Oval-125" cx="4" cy="4" r="4"></circle>
                                        <circle id="Oval-125" cx="24" cy="4" r="4"></circle>
                                        <circle id="Oval-125" cx="44" cy="4" r="4"></circle>
                                        <rect id="Rectangle-692" x="6" y="3" width="54" height="2"></rect>
                                    </g>
                                    <g id="noun_43005_cc" transform="translate(62.000000, 0.000000)">
                                        <path d="M25.4207838,13.8338771 C29.8915135,12.8036771 33.8077297,10.3301771 36.6546486,6.93187712 L33.8213514,6.93187712 C31.6810541,9.03421045 29.0344865,10.6231438 26.082,11.5037438 C27.9617838,10.1941771 29.6644865,8.82341045 30.2076486,7.83797712 C31.608973,5.29704379 30.6015405,2.05854379 28.0565676,0.659443787 C25.5433784,-0.722089546 22.1737297,0.135843787 20.7394865,2.60311045 C19.3052432,0.135843787 15.9355946,-0.722656213 13.422973,0.65887712 C10.878,2.05854379 9.87,5.29647712 11.2713243,7.83741045 C11.8150541,8.82284379 13.5171892,10.1936105 15.396973,11.5031771 C12.4439189,10.6231438 9.79791892,9.03421045 7.65762162,6.93131045 L4.82432432,6.93131045 C7.67067568,10.3296105 11.588027,12.8031105 16.0576216,13.8333105 L3.55271368e-15,13.8333105 L3.55271368e-15,50.9992771 L41.478973,50.9992771 L41.478973,13.8338771 L25.4207838,13.8338771 L25.4207838,13.8338771 Z M26.9747838,2.58781045 C28.5418378,3.44971045 29.1616216,5.44324379 28.2989189,7.00724379 C27.4362162,8.57124379 21.8337568,11.7145438 21.8337568,11.7145438 C21.8337568,11.7145438 21.8331892,11.7032105 21.8326216,11.6867771 C21.8297838,11.0062105 21.8195676,10.2780438 21.7968649,9.53627712 C21.7991351,7.55634379 21.9035676,4.80291045 22.4342432,3.84184379 C23.2975135,2.27784379 25.4082973,1.72647712 26.9747838,2.58781045 L26.9747838,2.58781045 Z M13.1794865,7.00724379 C12.3162162,5.44267712 12.9371351,3.44914379 14.5036216,2.58781045 C16.0706757,1.72647712 18.1808919,2.27784379 19.0441622,3.84184379 C19.5748378,4.80404379 19.6798378,7.56144379 19.6821081,9.54194379 C19.6594054,10.2825771 19.6486216,11.0096105 19.6463514,11.6890438 C19.6457838,11.7049105 19.6452162,11.7151105 19.6452162,11.7151105 C19.6452162,11.7151105 14.0421892,8.57124379 13.1794865,7.00724379 L13.1794865,7.00724379 Z M19.6758649,48.8754105 L2.12724324,48.8754105 L2.12724324,27.6378771 L19.6758649,27.6378771 L19.6758649,48.8754105 L19.6758649,48.8754105 Z M19.6758649,25.5140105 L2.12724324,25.5140105 L2.12724324,15.9577438 L19.6758649,15.9577438 L19.6758649,25.5140105 L19.6758649,25.5140105 Z M39.3517297,48.8754105 L21.8031081,48.8754105 L21.8031081,27.6378771 L39.3517297,27.6378771 L39.3517297,48.8754105 L39.3517297,48.8754105 Z M39.3517297,25.5140105 L21.8031081,25.5140105 L21.8031081,15.9577438 L39.3517297,15.9577438 L39.3517297,25.5140105 L39.3517297,25.5140105 Z" id="Shape"></path>
                                    </g>
                                </g>
                            </g>
                        </g>
                    </g>
                </g>
            </g>
        </g>
    </g>
</svg>