<?xml version="1.0" encoding="UTF-8" standalone="no"?>
<svg width="19px" height="19px" viewBox="0 0 19 19" version="1.1" xmlns="http://www.w3.org/2000/svg" xmlns:xlink="http://www.w3.org/1999/xlink">
    <!-- Generator: sketchtool 3.7.2 (28276) - http://www.bohemiancoding.com/sketch -->
    <title>E146A0ED-2706-49F2-94A2-D15E66297300</title>
    <desc>Created with sketchtool.</desc>
    <defs></defs>
    <g id="A-Landing" stroke="none" stroke-width="1" fill="none" fill-rule="evenodd" opacity="0.6">
        <g id="A01-Home-(Desktop)" transform="translate(-761.000000, -4073.000000)">
            <g id="Group-5" transform="translate(0.000000, 3524.000000)">
                <g id="Group-16" transform="translate(135.000000, 77.000000)">
                    <g id="Group-62" transform="translate(0.000000, 117.000000)">
                        <g id="Group-13" transform="translate(600.000000, 0.000000)">
                            <g id="Group-11">
                                <g id="Group-15" transform="translate(24.000000, 352.000000)">
                                    <g id="icon-time">
                                        <polygon id="Bounds" fill-opacity="0.100000001" fill="#D0011B" opacity="0" points="0 0 24 0 24 24 0 24"></polygon>
                                        <path d="M11.5,3 C16.75,3 21,7.25 21,12.5 C21,17.75 16.75,22 11.5,22 C6.25,22 2,17.75 2,12.5 C2,7.25 6.25,3 11.5,3 L11.5,3 Z M11.5,4 C6.81,4 3,7.81 3,12.5 C3,17.19 6.81,21 11.5,21 C16.19,21 20,17.19 20,12.5 C20,7.81 16.19,4 11.5,4 L11.5,4 Z M11,7 L12,7 L12,12.42 L16.7,15.13 L16.2,16 L11,13 L11,7 L11,7 Z" id="Icon-Shape" fill="#444F6C"></path>
                                    </g>
                                </g>
                            </g>
                        </g>
                    </g>
                </g>
            </g>
        </g>
    </g>
</svg>