<?xml version="1.0" encoding="UTF-8" standalone="no"?>
<svg width="104px" height="58px" viewBox="0 0 104 58" version="1.1" xmlns="http://www.w3.org/2000/svg" xmlns:xlink="http://www.w3.org/1999/xlink">
    <!-- Generator: sketchtool 3.6.1 (26313) - http://www.bohemiancoding.com/sketch -->
    <title>icon-tutorial-shopping-app</title>
    <desc>Created with sketchtool.</desc>
    <defs></defs>
    <g id="A-Landing" stroke="none" stroke-width="1" fill="none" fill-rule="evenodd">
        <g id="A01-Home-(Desktop)" transform="translate(-796.000000, -3389.000000)" fill="#FFFFFF">
            <g id="Group-5" transform="translate(0.000000, 3132.000000)">
                <g id="Group-16" transform="translate(135.000000, 77.000000)">
                    <g id="Group-62" transform="translate(0.000000, 117.000000)">
                        <g id="Group-13" transform="translate(600.000000, 0.000000)">
                            <g id="Group-11">
                                <g id="icon-tutorial-shopping-app" transform="translate(61.000000, 63.000000)">
                                    <g id="noun_319736_cc" transform="translate(45.000000, 0.000000)">
                                        <g id="Group">
                                            <path d="M56,16 L56,3 L46,3 L46,0 L28,0 L28,8 L14,8 L14,16 L11,16 L11,8 C11,7.45 10.55,7 10,7 L7.86,7 C7.41,5.28 5.86,4 4,4 C1.79,4 0,5.79 0,8 C0,10.21 1.79,12 4,12 C5.86,12 7.41,10.72 7.86,9 L9,9 L9,16 L9,17 L9,41 L9,42 L9,48 C9,48.55 9.45,49 10,49 L17.03,49 C15.81,49.91 15,51.36 15,53 C15,55.76 17.24,58 20,58 C22.76,58 25,55.76 25,53 C25,51.36 24.19,49.91 22.97,49 L41.03,49 C39.81,49.91 39,51.36 39,53 C39,55.76 41.24,58 44,58 C46.76,58 49,55.76 49,53 C49,51.36 48.19,49.91 46.97,49 L53,49 C53.55,49 54,48.55 54,48 C54,47.45 53.55,47 53,47 L11,47 L11,42 L59,42 L59,16 L56,16 L56,16 Z M4,10 C2.9,10 2,9.1 2,8 C2,6.9 2.9,6 4,6 C4.74,6 5.37,6.41 5.72,7 L5,7 C4.45,7 4,7.45 4,8 C4,8.55 4.45,9 5,9 L5.72,9 C5.37,9.59 4.74,10 4,10 L4,10 Z M20,56 C18.35,56 17,54.65 17,53 C17,51.35 18.35,50 20,50 C21.65,50 23,51.35 23,53 C23,54.65 21.65,56 20,56 L20,56 Z M44,56 C42.35,56 41,54.65 41,53 C41,51.35 42.35,50 44,50 C45.65,50 47,51.35 47,53 C47,54.65 45.65,56 44,56 L44,56 Z M11,26 L17,26 L17,32 L11,32 L11,26 L11,26 Z M19,26 L25,26 L25,32 L19,32 L19,26 L19,26 Z M25,18 L25,24 L19,24 L19,18 L25,18 L25,18 Z M28,18 L30,18 L33,18 L33,24 L27,24 L27,18 L28,18 L28,18 Z M41,18 L41,24 L35,24 L35,18 L41,18 L41,18 Z M44,18 L46,18 L49,18 L49,24 L43,24 L43,18 L44,18 L44,18 Z M35,26 L41,26 L41,32 L35,32 L35,26 L35,26 Z M33,32 L27,32 L27,26 L33,26 L33,32 L33,32 Z M25,34 L25,40 L19,40 L19,34 L25,34 L25,34 Z M27,34 L33,34 L33,40 L27,40 L27,34 L27,34 Z M35,34 L41,34 L41,40 L35,40 L35,34 L35,34 Z M43,34 L49,34 L49,40 L43,40 L43,34 L43,34 Z M43,32 L43,26 L49,26 L49,32 L43,32 L43,32 Z M51,26 L57,26 L57,32 L51,32 L51,26 L51,26 Z M57,18 L57,24 L51,24 L51,18 L56,18 L57,18 L57,18 Z M54,5 L54,16 L46,16 L46,5 L54,5 L54,5 Z M30,2 L44,2 L44,3 L44,16 L30,16 L30,8 L30,2 L30,2 Z M16,10 L28,10 L28,16 L16,16 L16,10 L16,10 Z M17,18 L17,24 L11,24 L11,18 L14,18 L17,18 L17,18 Z M11,34 L17,34 L17,40 L11,40 L11,34 L11,34 Z M51,40 L51,34 L57,34 L57,40 L51,40 L51,40 Z" id="Shape"></path>
                                        </g>
                                    </g>
                                    <circle id="Oval-40" cx="40.5" cy="7.5" r="1.5"></circle>
                                    <circle id="Oval-40" cx="31.5" cy="7.5" r="1.5"></circle>
                                    <circle id="Oval-40" cx="18.5" cy="7.5" r="1.5"></circle>
                                    <circle id="Oval-40" cx="1.5" cy="7.5" r="1.5"></circle>
                                </g>
                            </g>
                        </g>
                    </g>
                </g>
            </g>
        </g>
    </g>
</svg>