<?xml version="1.0" encoding="UTF-8" standalone="no"?>
<svg width="80px" height="82px" viewBox="0 0 80 82" version="1.1" xmlns="http://www.w3.org/2000/svg" xmlns:xlink="http://www.w3.org/1999/xlink">
    <!-- Generator: sketchtool 3.6.1 (26313) - http://www.bohemiancoding.com/sketch -->
    <title>icon-tutorial-restaurant-app</title>
    <desc>Created with sketchtool.</desc>
    <defs></defs>
    <g id="A-Landing" stroke="none" stroke-width="1" fill="none" fill-rule="evenodd">
        <g id="A01-Home-(Desktop)" transform="translate(-530.000000, -3383.000000)">
            <g id="Group-5" transform="translate(0.000000, 3132.000000)">
                <g id="Group-16" transform="translate(135.000000, 77.000000)">
                    <g id="Group-62" transform="translate(0.000000, 117.000000)">
                        <g id="Group-13" transform="translate(300.000000, 0.000000)">
                            <g id="Group-11">
                                <g id="icon-tutorial-restaurant-app" transform="translate(93.000000, 57.000000)">
                                    <g id="noun_263307_cc" transform="translate(25.000000, 0.000000)" fill="#FFFFFE">
                                        <path d="M15.7857143,0 C15.1178571,0 14.5714286,0.542045455 14.5714286,1.20454545 L14.5714286,14.4545455 C14.5714286,17.1647727 14.2071429,17.8875 12.2642857,19.0920455 C10.625,20.1159091 9.65357143,22.0431818 9.71428571,24.1511364 L10.8071429,49.4465909 C10.8071429,49.8079545 10.7464286,50.0488636 10.625,50.1693182 C10.3214286,50.4704545 9.65357143,50.5909091 8.5,50.5909091 C7.34642857,50.5909091 6.67857143,50.4704545 6.375,50.1693182 C6.25357143,50.0488636 6.19285714,49.8079545 6.19285714,49.3863636 L6.98214286,24.0909091 C7.04285714,22.0431818 6.07142857,20.1159091 4.43214286,19.0318182 C2.55,17.8875 2.42857143,17.225 2.42857143,14.3943182 L2.42857143,1.20454545 C2.42857143,0.542045455 1.88214286,0 1.21428571,0 C0.546428571,0 0,0.542045455 0,1.20454545 L0,14.4545455 C0,17.7068182 0.303571429,19.3329545 3.15714286,21.1397727 C4.06785714,21.7420455 4.61428571,22.8261364 4.55357143,24.0306818 L3.76428571,49.3261364 C3.70357143,50.35 4.00714286,51.1931818 4.61428571,51.8556818 C5.58571429,52.8795455 7.10357143,53 8.5,53 C9.89642857,53 11.3535714,52.8795455 12.3857143,51.8556818 C12.9928571,51.2534091 13.2964286,50.4102273 13.2357143,49.3261364 L12.1428571,24.0306818 C12.0821429,22.8261364 12.6285714,21.6818182 13.5392857,21.1397727 C16.5142857,19.2727273 17,17.5863636 17,14.4545455 L17,1.20454545 C17,0.542045455 16.4535714,0 15.7857143,0 L15.7857143,0 Z" id="Shape"></path>
                                        <path d="M6.07142857,15.6590909 C6.73928571,15.6590909 7.28571429,15.1170455 7.28571429,14.4545455 L7.28571429,1.20454545 C7.28571429,0.542045455 6.73928571,0 6.07142857,0 C5.40357143,0 4.85714286,0.542045455 4.85714286,1.20454545 L4.85714286,14.4545455 C4.85714286,15.1170455 5.40357143,15.6590909 6.07142857,15.6590909 L6.07142857,15.6590909 Z" id="Shape"></path>
                                        <path d="M10.9285714,15.6590909 C11.5964286,15.6590909 12.1428571,15.1170455 12.1428571,14.4545455 L12.1428571,1.20454545 C12.1428571,0.542045455 11.5964286,0 10.9285714,0 C10.2607143,0 9.71428571,0.542045455 9.71428571,1.20454545 L9.71428571,14.4545455 C9.71428571,15.1170455 10.2607143,15.6590909 10.9285714,15.6590909 L10.9285714,15.6590909 Z" id="Shape"></path>
                                        <path d="M32.7857143,0 L32.7857143,0 C28.4142857,0 24.7714286,3.73409091 22.95,10.0579545 C21.0071429,16.7431818 21.4928571,25.175 25.5,28.3068182 L25.5,49.3863636 C25.5,51.0125 26.2285714,53 29.75,53 C33.2714286,53 34,51.0125 34,49.3863636 L34,1.20454545 C34,0.542045455 33.4535714,0 32.7857143,0 L32.7857143,0 Z M31.5714286,49.3863636 C31.5714286,50.0488636 31.5714286,50.5909091 29.75,50.5909091 C27.9285714,50.5909091 27.9285714,50.0488636 27.9285714,49.3863636 L27.9285714,27.7045455 C27.9285714,27.2829545 27.6857143,26.9215909 27.3214286,26.6806818 C24.2857143,24.8136364 23.3142857,17.3454545 25.2571429,10.7204545 C26.5928571,6.20340909 28.8392857,3.25227273 31.5714286,2.58977273 L31.5714286,49.3863636 L31.5714286,49.3863636 Z" id="Shape"></path>
                                    </g>
                                    <g id="Group-14" transform="translate(0.000000, 60.000000)">
                                        <g id="ic_star">
                                            <path d="M0,0 L24,0 L24,24 L0,24 L0,0 Z" id="Bounds" fill-opacity="0.100000001" fill="#D0011B" opacity="0"></path>
                                            <path d="M17.59,20.7 L12,17.34 L6.42,20.7 L7.88,14.35 L2.96,10.07 L9.45,9.5 L12,3.5 L14.55,9.5 L21.04,10.07 L16.12,14.34 L17.59,20.7 L17.59,20.7 Z" id="Icon-Shape" stroke="#FFFFFE" stroke-width="1.5" stroke-linecap="round" stroke-linejoin="round" fill="#FFFFFE"></path>
                                        </g>
                                        <g id="ic_star" transform="translate(30.000000, 0.000000)">
                                            <path d="M0,0 L24,0 L24,24 L0,24 L0,0 Z" id="Bounds" fill-opacity="0.100000001" fill="#D0011B" opacity="0"></path>
                                            <path d="M17.59,20.7 L12,17.34 L6.42,20.7 L7.88,14.35 L2.96,10.07 L9.45,9.5 L12,3.5 L14.55,9.5 L21.04,10.07 L16.12,14.34 L17.59,20.7 L17.59,20.7 Z" id="Icon-Shape" stroke="#FFFFFE" stroke-width="1.5" stroke-linecap="round" stroke-linejoin="round" fill="#FFFFFE"></path>
                                        </g>
                                        <g id="ic_star" transform="translate(60.000000, 0.000000)">
                                            <path d="M0,0 L24,0 L24,24 L0,24 L0,0 Z" id="Bounds" fill-opacity="0.100000001" fill="#D0011B" opacity="0"></path>
                                            <path d="M17.59,20.7 L12,17.34 L6.42,20.7 L7.88,14.35 L2.96,10.07 L9.45,9.5 L12,3.5 L14.55,9.5 L21.04,10.07 L16.12,14.34 L17.59,20.7 L17.59,20.7 Z" id="Icon-Shape" stroke="#FFFFFE" stroke-width="2" stroke-linecap="round" stroke-linejoin="round"></path>
                                        </g>
                                    </g>
                                </g>
                            </g>
                        </g>
                    </g>
                </g>
            </g>
        </g>
    </g>
</svg>