<?xml version="1.0" encoding="UTF-8" standalone="no"?>
<svg width="75px" height="95px" viewBox="0 0 75 95" version="1.1" xmlns="http://www.w3.org/2000/svg" xmlns:xlink="http://www.w3.org/1999/xlink">
    <!-- Generator: sketchtool 3.8.3 (29802) - http://www.bohemiancoding.com/sketch -->
    <title>AA3F7542-4209-41D8-83CD-38FF08E843D6</title>
    <desc>Created with sketchtool.</desc>
    <defs></defs>
    <g id="A-Landing" stroke="none" stroke-width="1" fill="none" fill-rule="evenodd">
        <g id="A04-Home-(Desktop)---Without-features" transform="translate(-325.000000, -3601.000000)" fill="#FFFFFF">
            <g id="Group-5" transform="translate(0.000000, 3357.000000)">
                <g id="Group-16" transform="translate(205.000000, 77.000000)">
                    <g id="Group-62" transform="translate(0.000000, 117.000000)">
                        <g id="Group-13">
                            <g id="icon-tutorial-getting-started" transform="translate(120.000000, 50.000000)">
                                <path d="M52,92.6864565 L52,76.3135435 C52,75.5874872 52.6708806,75 53.5,75 C54.3291194,75 55,75.5874872 55,76.3135435 L55,92.6864565 C55,93.4125128 54.3291194,94 53.5,94 C52.6708806,94 52,93.4125128 52,92.6864565" id="Fill-40"></path>
                                <path d="M42,90.6952827 L42,76.3047173 C42,75.5835396 42.6708806,75 43.5,75 C44.3291194,75 45,75.5835396 45,76.3047173 L45,90.6952827 C45,91.4164604 44.3291194,92 43.5,92 C42.6708806,92 42,91.4164604 42,90.6952827" id="Fill-42"></path>
                                <path d="M47,81.5949008 L47,76.4050992 C47,75.6284358 47.6708806,75 48.5,75 C49.3291194,75 50,75.6284358 50,76.4050992 L50,81.5949008 C50,82.3715642 49.3291194,83 48.5,83 C47.6708806,83 47,82.3715642 47,81.5949008" id="Fill-44"></path>
                                <path d="M22,77.3135435 L22,93.6864565 C22,94.4125128 21.3291194,95 20.5,95 C19.6708806,95 19,94.4125128 19,93.6864565 L19,77.3135435 C19,76.5874872 19.6708806,76 20.5,76 C21.3291194,76 22,76.5874872 22,77.3135435" id="Fill-46"></path>
                                <path d="M32,77.2796396 L32,87.7203604 C32,88.4276765 31.3291194,89 30.5,89 C29.6708806,89 29,88.4276765 29,87.7203604 L29,77.2796396 C29,76.5723235 29.6708806,76 30.5,76 C31.3291194,76 32,76.5723235 32,77.2796396" id="Fill-48"></path>
                                <path d="M27,77.1698113 L27,77.8301887 C27,78.4767976 26.3291194,79 25.5,79 C24.6708806,79 24,78.4767976 24,77.8301887 L24,77.1698113 C24,76.5232024 24.6708806,76 25.5,76 C26.3291194,76 27,76.5232024 27,77.1698113" id="Fill-50"></path>
                                <path d="M42.8645737,62 L42.8645737,60.5003156 C42.8645737,59.9859036 42.9119729,59.4847465 43,59 L32,59 C32.0880271,59.4847465 32.1354263,59.9859036 32.1354263,60.5003156 L32.1354263,62 L42.8645737,62 Z" id="Fill-93"></path>
                                <path d="M26.6996024,54 L26.6996024,25.8759463 C26.6996024,16.5122901 34.6990134,6.91143026 37.500284,3.83675504 C40.3026905,6.90862644 48.2998296,16.4977102 48.2998296,25.8759463 L48.2998296,54 C48.7360372,53.9125206 49.1875802,53.8659771 49.6499148,53.8659771 C50.1122494,53.8659771 50.5632244,53.9125206 51,54 L51,25.8759463 C51,13.4701393 38.9662368,1.44677404 38.4539201,0.942085423 L38.4539201,0.942085423 C37.9269277,0.421786011 36.8681862,0.623138275 36.5449439,0.942085423 L36.5449439,0.942085423 C36.0331952,1.44677404 24,13.4701393 24,25.8759463 L24,54 C24.4362076,53.9125206 24.8871826,53.8659771 25.3495172,53.8659771 C25.8124198,53.8659771 26.2633948,53.9125206 26.6996024,54 Z" id="Fill-94"></path>
                                <path d="M37.5,20.7501446 C35.9831177,20.7501446 34.7497107,21.9840652 34.7497107,23.5002892 C34.7497107,25.0159348 35.9831177,26.2498554 37.5,26.2498554 C39.0168823,26.2498554 40.2502893,25.0159348 40.2502893,23.5002892 C40.2502893,21.9840652 39.0168823,20.7501446 37.5,20.7501446 M37.5,29 C34.4673924,29 32,26.5333158 32,23.5002892 C32,20.4666842 34.4673924,18 37.5,18 C40.5326076,18 43,20.4666842 43,23.5002892 C43,26.5333158 40.5326076,29 37.5,29" id="Fill-95"></path>
                                <path d="M20.6667602,68.2855511 L31.3332398,68.2855511 L31.3332398,60.1427756 C31.3332398,57.1485455 28.9407846,54.7138779 25.9997195,54.7138779 C23.0592154,54.7138779 20.6667602,57.1485455 20.6667602,60.1427756 L20.6667602,68.2855511 Z M34,69.0086177 C34,70.1084278 33.1054862,71 32.0059397,71 L19.9940603,71 C18.8927712,71 18,70.1115078 18,69.0086177 L18,60.1427756 C18,55.6525724 21.5884023,52 25.9997195,52 C30.4110367,52 34,55.6525724 34,60.1427756 L34,69.0086177 Z" id="Fill-96"></path>
                                <path d="M43.6667602,68.2855511 L54.3332398,68.2855511 L54.3332398,60.1427756 C54.3332398,57.1485455 51.9407846,54.7138779 48.9997195,54.7138779 C46.0592154,54.7138779 43.6667602,57.1485455 43.6667602,60.1427756 L43.6667602,68.2855511 Z M57,69.0086177 C57,70.1084278 56.1054862,71 55.0059397,71 L42.9940603,71 C41.8927712,71 41,70.1115078 41,69.0086177 L41,60.1427756 C41,55.6525724 44.5884023,52 48.9997195,52 C53.4110367,52 57,55.6525724 57,60.1427756 L57,69.0086177 Z" id="Fill-97"></path>
                                <path d="M75,59.9913986 C75,61.1007185 74.1016651,62 73.0039729,62 L55.8419841,62 L55.8419841,59.307518 L72.2629761,59.307518 L72.2629761,49.0960225 L52.5384411,29.692482 L49,29.692482 L49,27 L51.6635689,27 C52.7728251,27 54.3103579,27.6279154 55.1045591,28.4091918 L73.5674958,46.5716652 C74.358646,47.3499403 75,48.8791437 75,49.9894584 L75,59.9913986 Z" id="Fill-98"></path>
                                <path d="M19.1580159,62 L1.9960271,62 C0.893651773,62 0,61.1017133 0,59.9913986 L0,49.9894584 C0,48.8801385 0.638303032,47.3529416 1.43250419,46.5716652 L19.8954409,28.4091918 C20.6865911,27.6309167 22.2287643,27 23.3364311,27 L26,27 L26,29.692482 L22.4615589,29.692482 L2.73702391,49.0960225 L2.73702391,59.307518 L19.1580159,59.307518 L19.1580159,62 Z" id="Fill-99"></path>
                                <path d="M47,69 L50,69 L50,67.5 C50,66.6715729 49.3342028,66 48.5,66 L48.5,66 C47.6715729,66 47,66.6657972 47,67.5 L47,69 Z" id="Fill-100"></path>
                                <path d="M24,69 L27,69 L27,67.5 C27,66.6715729 26.3342028,66 25.5,66 L25.5,66 C24.6715729,66 24,66.6657972 24,67.5 L24,69 Z" id="Fill-101"></path>
                            </g>
                        </g>
                    </g>
                </g>
            </g>
        </g>
    </g>
</svg>