<?xml version="1.0" encoding="UTF-8" ?>
<svg
   xmlns:svg="http://www.w3.org/2000/svg"
   xmlns="http://www.w3.org/2000/svg"
   width="23px"
   height="27px"
   viewBox="0 0 23 27"
   version="1.1">
  <path
     d="M 14.5,2.497005 C 14.5,1.394089 15.386706,0.5 16.498101,0.5 l 4.003798,0 C 21.60542,0.5 22.5,1.394979 22.5,2.497005 l 0,22.00599 C 22.5,25.605911 21.613294,26.5 20.501899,26.5 l -4.003798,0 C 15.39458,26.5 14.5,25.605021 14.5,24.502995 l 0,-22.00599 z m -14,0 C 0.5,1.394089 1.3867064,0.5 2.4981014,0.5 l 4.0037972,0 C 7.6054196,0.5 8.5,1.394979 8.5,2.497005 l 0,22.00599 C 8.5,25.605911 7.6132936,26.5 6.5018986,26.5 l -4.0037972,0 C 1.3945804,26.5 0.5,25.605021 0.5,24.502995 l 0,-22.00599 z M 2.5,24.5 l 4,0 0,-22 -4,0 0,22 z m 14,0 4,0 0,-22 -4,0 0,22 z"
     id="Icon-Shape"
     style="fill:#ffffff" />
</svg>
