<?xml version="1.0" encoding="UTF-8" standalone="no"?>
<svg width="22px" height="22px" viewBox="1 1 22 22" version="1.1" xmlns="http://www.w3.org/2000/svg" xmlns:xlink="http://www.w3.org/1999/xlink">
    <path d="M22.46,5.5 C21.69,5.85 20.86,6.08 20,6.19 C20.88,5.66 21.56,4.82 21.88,3.81 C21.05,4.31 20.13,4.66 19.16,4.86 C18.37,4 17.26,3.5 16,3.5 C13.65,3.5 11.73,5.42 11.73,7.79 C11.73,8.13 11.77,8.46 11.84,8.77 C8.28,8.59 5.11,6.88 3,4.29 C2.63,4.92 2.42,5.66 2.42,6.44 C2.42,7.93 3.17,9.25 4.33,10 C3.62,10 2.96,9.8 2.38,9.5 C2.38,9.5 2.38,9.5 2.38,9.53 C2.38,11.61 3.86,13.35 5.82,13.74 C5.46,13.84 5.08,13.89 4.69,13.89 C4.42,13.89 4.15,13.86 3.89,13.81 C4.43,15.5 6,16.76 7.89,16.79 C6.43,17.95 4.58,18.63 2.56,18.63 C2.22,18.63 1.88,18.61 1.54,18.57 C3.44,19.79 5.7,20.5 8.12,20.5 C16,20.5 20.33,13.96 20.33,8.29 C20.33,8.1 20.33,7.92 20.32,7.73 C21.16,7.13 21.88,6.37 22.46,5.5 L22.46,5.5 Z" id="Icon-Shape" fill="#FFF"></path>
</svg>