<?xml version="1.0" encoding="UTF-8" standalone="no"?>
<svg width="64px" height="63px" viewBox="0 0 64 63" version="1.1" xmlns="http://www.w3.org/2000/svg" xmlns:xlink="http://www.w3.org/1999/xlink">
    <g id="B.1-Shoutem-UI-Toolkit" stroke="none" stroke-width="1" fill="none" fill-rule="evenodd">
        <g id="B.1-01-Home" transform="translate(-690.000000, -4603.000000)" fill="#FFFFFF">
            <g id="Group-5" transform="translate(0.000000, 4352.000000)">
                <g id="Group-16" transform="translate(205.000000, 77.000000)">
                    <g id="Group-62" transform="translate(0.000000, 117.000000)">
                        <g id="Group-13" transform="translate(360.000000, 0.000000)">
                            <g id="Group-11">
                                <g id="Group-12">
                                    <g id="github-mark" transform="translate(125.000000, 57.000000)">
                                        <path d="M32.000265,0 C14.3293232,0 0,14.4412869 0,32.2562671 C0,46.5079308 9.16904992,58.5989566 21.8837342,62.8641465 C23.4830056,63.1627363 24.070147,62.1644096 24.070147,61.3124399 C24.070147,60.5432633 24.040472,58.0023105 24.0266942,55.3069884 C15.1241896,57.2582392 13.2456552,51.5011674 13.2456552,51.5011674 C11.7899896,47.7727987 9.692602,46.7814156 9.692602,46.7814156 C6.78921963,44.7794205 9.91145515,44.8205499 9.91145515,44.8205499 C13.1248355,45.0480978 14.8168412,48.1445672 14.8168412,48.1445672 C17.6709419,53.0758426 22.3028938,51.6501954 24.1289671,50.8260015 C24.4161789,48.741213 25.2454898,47.3182366 26.1606458,46.512738 C19.0529497,45.6970903 11.5812047,42.9312603 11.5812047,30.5715569 C11.5812047,27.049904 12.8312647,24.1724368 14.8783109,21.9135152 C14.5460567,21.1010726 13.4507307,17.8203216 15.1883089,13.3772596 C15.1883089,13.3772596 17.8754875,12.5103337 23.9906603,16.6836498 C26.5432417,15.9689568 29.2807617,15.6105419 32.000265,15.5982565 C34.7197683,15.6105419 37.459408,15.9689568 40.0167583,16.6836498 C46.1245125,12.5103337 48.8079815,13.3772596 48.8079815,13.3772596 C50.5497992,17.8203216 49.4539433,21.1010726 49.121689,21.9135152 C51.1735045,24.1724368 52.4150858,27.049904 52.4150858,30.5715569 C52.4150858,42.9606387 44.9290333,45.6885442 37.8033202,46.4870987 C38.9511075,47.4880967 39.9738355,49.4510985 39.9738355,52.4605014 C39.9738355,56.7764359 39.936742,60.250015 39.936742,61.3124399 C39.936742,62.1708195 40.512755,63.1766243 42.1348125,62.8598731 C54.842608,58.5898758 64,46.5031234 64,32.2562671 C64,14.4412869 49.6727968,0 32.000265,0 L32.000265,0 Z M11.9851398,45.9497334 C11.9146616,46.1099785 11.6645436,46.158052 11.4366819,46.0480172 C11.2045809,45.9427893 11.0742228,45.7243219 11.1494702,45.5635429 C11.2183586,45.3984902 11.4690065,45.3525534 11.7005776,45.4631224 C11.9332085,45.5683501 12.0656863,45.7889541 11.9851398,45.9497334 L11.9851398,45.9497334 Z M13.5591973,47.36548 C13.406583,47.5080981 13.1082431,47.4418635 12.9058171,47.2164522 C12.6965022,46.991575 12.6572888,46.6908483 12.8120228,46.5460934 C12.9694064,46.4034753 13.2587378,46.4702442 13.4685826,46.6951215 C13.6778973,46.9226694 13.7187005,47.2212594 13.5591973,47.36548 L13.5591973,47.36548 Z M14.6390603,49.1768794 C14.4429933,49.3141562 14.1223971,49.1854258 13.9242104,48.8985873 C13.7281433,48.6117485 13.7281433,48.2677557 13.9284497,48.1299449 C14.1271663,47.9921342 14.4429933,48.1160572 14.6438295,48.4007593 C14.8393667,48.6924052 14.8393667,49.0363978 14.6390603,49.1768794 L14.6390603,49.1768794 Z M16.4653398,51.2747358 C16.2899393,51.4697012 15.9163521,51.4173542 15.6429179,51.1513476 C15.363125,50.891216 15.285228,50.5221182 15.4611585,50.3271534 C15.6386786,50.1316545 16.0143855,50.1866719 16.2899393,50.4505421 C16.5676126,50.7101394 16.6523984,51.081908 16.4653398,51.2747358 L16.4653398,51.2747358 Z M18.8256288,51.9829486 C18.7482618,52.2356018 18.3884522,52.350444 18.0259931,52.2430799 C17.6640639,52.1325108 17.4271937,51.8365918 17.5003214,51.5812679 C17.5755687,51.3270125 17.936968,51.2073626 18.3020767,51.3222048 C18.663476,51.4322399 18.9008762,51.7260225 18.8256288,51.9829486 L18.8256288,51.9829486 Z M21.5117367,52.283354 C21.5207451,52.5493607 21.2133968,52.7699647 20.8329207,52.7747724 C20.450325,52.7833187 20.140857,52.5680563 20.1366177,52.3063225 C20.1366177,52.0376449 20.4370772,51.8191776 20.8196729,51.8127677 C21.200149,51.8052896 21.5117367,52.0189496 21.5117367,52.283354 L21.5117367,52.283354 Z M24.1505368,52.1813938 C24.1961092,52.4409911 23.9316835,52.7075317 23.553857,52.7785738 C23.1823894,52.8469449 22.8384772,52.6866999 22.7913151,52.4292396 C22.7452129,52.1632327 23.0144077,51.8966918 23.3853453,51.8277866 C23.7637018,51.761552 24.1023149,51.9175236 24.1505368,52.1813938 L24.1505368,52.1813938 Z" id="Shape"></path>
                                    </g>
                                </g>
                            </g>
                        </g>
                    </g>
                </g>
            </g>
        </g>
    </g>
</svg>