<?xml version="1.0" encoding="UTF-8" standalone="no"?>
<svg
   xmlns:dc="http://purl.org/dc/elements/1.1/"
   xmlns:cc="http://creativecommons.org/ns#"
   xmlns:rdf="http://www.w3.org/1999/02/22-rdf-syntax-ns#"
   xmlns:svg="http://www.w3.org/2000/svg"
   xmlns="http://www.w3.org/2000/svg"
   xmlns:sodipodi="http://sodipodi.sourceforge.net/DTD/sodipodi-0.dtd"
   xmlns:inkscape="http://www.inkscape.org/namespaces/inkscape"
   width="172px"
   height="30px"
   viewBox="0 0 172 30"
   version="1.1"
   id="svg3336"
   inkscape:version="0.91 r13725"
   sodipodi:docname="shoutem-ui-toolkit-dark.svg">
  <metadata
     id="metadata3360">
    <rdf:RDF>
      <cc:Work
         rdf:about="">
        <dc:format>image/svg+xml</dc:format>
        <dc:type
           rdf:resource="http://purl.org/dc/dcmitype/StillImage" />
      </cc:Work>
    </rdf:RDF>
  </metadata>
  <sodipodi:namedview
     pagecolor="#ffffff"
     bordercolor="#666666"
     borderopacity="1"
     objecttolerance="10"
     gridtolerance="10"
     guidetolerance="10"
     inkscape:pageopacity="0"
     inkscape:pageshadow="2"
     inkscape:window-width="1540"
     inkscape:window-height="1071"
     id="namedview3358"
     showgrid="false"
     inkscape:zoom="6.9360465"
     inkscape:cx="211.06259"
     inkscape:cy="15"
     inkscape:window-x="643"
     inkscape:window-y="104"
     inkscape:window-maximized="0"
     inkscape:current-layer="svg3336" />
  <!-- Generator: sketchtool 39.1 (31721) - http://www.bohemiancoding.com/sketch -->
  <title
     id="title3338">3870A039-5AC7-4CAF-B2B0-3E2FC08C8C19</title>
  <desc
     id="desc3340">Created with sketchtool.</desc>
  <defs
     id="defs3342" />
  <g
     id="g4235">
    <g
       id="g4224">
      <path
         style="fill:#23a0cc;fill-rule:evenodd;stroke:none;stroke-width:1;fill-opacity:1"
         inkscape:connector-curvature="0"
         id="Fill-7"
         d="m 61.745193,14.010183 c -0.466851,0 -0.9118,-0.250462 -1.161496,-0.654089 -0.24469,-0.394211 -0.270974,-0.878186 -0.07384,-1.300645 L 65.21091,0.81918047 c 0.0063,-0.0150654 0.01314,-0.0301308 0.02003,-0.0445684 0.232175,-0.47079337 0.702781,-0.76268526 1.226581,-0.76268526 0.36422,0 0.707161,0.14249346 0.965619,0.40174368 l 6.510891,6.53084561 c 0.3104,0.3119791 0.45371,0.7570358 0.382368,1.1920489 -0.07197,0.435013 -0.349826,0.81102 -0.743459,1.0062423 -0.01439,0.0069 -0.02941,0.01381 -0.04381,0.020087 L 62.32782,13.878361 c -0.185864,0.08725 -0.381742,0.131822 -0.582626,0.131822 l 0,0 z M 66.525103,1.7325196 62.119426,12.263854 72.618581,7.8440453 66.525103,1.7325196 l 0,0 z" />
      <g
         id="g4215">
        <path
           d="m 1.4349742,26.516338 c 0,0 1.5106968,1.650288 4.0470903,1.650288 1.4568774,0 2.7247613,-0.730671 2.7247613,-2.165022 0,-2.976669 -7.31192257,-2.245998 -7.31192257,-6.684638 0,-2.435571 2.18531617,-3.761953 4.64098067,-3.761953 2.8599355,0 4.1816387,1.488963 4.1816387,1.488963 l -0.8360774,1.407358 c 0,0 -1.1602452,-1.245406 -3.3993807,-1.245406 -1.3761484,0 -2.6984774,0.595711 -2.6984774,2.111038 0,3.004289 7.3119229,2.192014 7.3119229,6.684638 0,2.219634 -1.9155939,3.815937 -4.640981,3.815937 -3.2917419,0 -5.0183419,-1.975449 -5.0183419,-1.975449 l 0.9987871,-1.325754"
           id="Fill-1"
           inkscape:connector-curvature="0"
           style="fill:#1a1919;fill-rule:evenodd;stroke:none;stroke-width:1" />
        <path
           d="m 32.437426,15.555013 c 3.966361,0 7.176748,3.031282 7.176748,7.063784 0,4.113478 -3.210387,7.198744 -7.176748,7.198744 -3.966362,0 -7.176749,-3.085266 -7.176749,-7.198744 0,-4.032502 3.210387,-7.063784 7.176749,-7.063784 l 0,0 z m 0,12.611613 c 2.913755,0 5.28869,-2.380959 5.28869,-5.547829 0,-3.085266 -2.374935,-5.385876 -5.28869,-5.385876 -2.913755,0 -5.288065,2.30061 -5.288065,5.385876 0,3.16687 2.37431,5.547829 5.288065,5.547829 l 0,0 z"
           id="Fill-2"
           inkscape:connector-curvature="0"
           style="fill:#1a1919;fill-rule:evenodd;stroke:none;stroke-width:1" />
        <path
           d="m 41.233761,15.880174 1.834865,0 0,8.172973 c 0,2.13803 0.324168,4.032502 2.94129,4.032502 3.102748,0 5.018342,-2.733112 5.018342,-5.683417 l 0,-6.522058 1.834239,0 0,13.612834 -1.78042,0 0,-2.029434 c 0,-0.59571 0.05382,-1.082824 0.05382,-1.082824 l -0.05382,0 c -0.539445,1.326382 -2.32049,3.436791 -5.314974,3.436791 -3.184103,0 -4.533342,-1.731892 -4.533342,-5.277279 l 0,-8.660088"
           id="Fill-3"
           inkscape:connector-curvature="0"
           style="fill:#1a1919;fill-rule:evenodd;stroke:none;stroke-width:1" />
        <path
           d="m 56.1824,17.410567 -1.780419,0 0,-1.542319 1.807954,0 0,-4.447428 1.80733,0 0,4.447428 4.268625,0 0,1.542319 -4.268625,0 0,6.940749 c 0,3.193235 2.023858,3.599373 3.048928,3.599373 0.377988,0 0.6208,-0.05461 0.6208,-0.05461 l 0,1.650915 c 0,0 -0.296632,0.05461 -0.782883,0.05461 -1.564517,0 -4.72171,-0.514734 -4.72171,-5.061342 l 0,-7.129695"
           id="Fill-4"
           inkscape:connector-curvature="0"
           style="fill:#1a1919;fill-rule:evenodd;stroke:none;stroke-width:1" />
        <path
           d="m 68.836832,15.555013 c 3.750458,0 5.666678,2.896321 5.666678,6.279128 0,0.324534 -0.05445,0.947237 -0.05445,0.947237 l -10.414672,0 c 0.08073,3.490775 2.455665,5.385248 5.261155,5.385248 2.482575,0 4.128445,-1.650288 4.128445,-1.650288 l 0.836078,1.407359 c 0,0 -1.969413,1.893844 -5.018342,1.893844 -4.04709,0 -7.096019,-2.922685 -7.096019,-7.11714 0,-4.465632 3.022019,-7.145388 6.691122,-7.145388 l 0,0 z m 3.804903,5.71041 c -0.108264,-2.841081 -1.834864,-4.167463 -3.858722,-4.167463 -2.266045,0 -4.235458,1.43435 -4.66789,4.167463 l 8.526612,0 0,0 z"
           id="Fill-5"
           inkscape:connector-curvature="0"
           style="fill:#1a1919;fill-rule:evenodd;stroke:none;stroke-width:1" />
        <path
           d="m 76.392819,15.880174 1.807955,0 0,2.029434 c 0,0.59571 -0.05382,1.082824 -0.05382,1.082824 l 0.05382,0 c 0.647084,-1.840488 2.806116,-3.437419 4.910078,-3.437419 2.509483,0 3.804277,1.163801 4.209174,3.410427 l 0.05382,0 c 0.729065,-1.840488 2.698478,-3.410427 4.992058,-3.410427 3.291116,0 4.505807,1.922092 4.505807,5.277908 l 0,8.660087 -1.834865,0 0,-8.199965 c 0,-2.219634 -0.458716,-4.060122 -2.94129,-4.060122 -2.077052,0 -3.776742,1.840488 -4.289903,3.843557 -0.188994,0.595083 -0.242188,1.244777 -0.242188,1.975449 l 0,6.441081 -1.834864,0 0,-8.199965 c 0,-2.057054 -0.297258,-4.060122 -2.860561,-4.060122 -2.212226,0 -3.885007,1.922092 -4.451362,4.00551 -0.135174,0.568718 -0.188993,1.190793 -0.188993,1.813496 l 0,6.441081 -1.834865,0 0,-13.612834"
           id="Fill-6"
           inkscape:connector-curvature="0"
           style="fill:#1a1919;fill-rule:evenodd;stroke:none;stroke-width:1" />
        <path
           d="m 19.107748,15.555013 c -3.075838,0 -4.883793,2.084045 -5.396329,3.383435 l -0.05382,0 c 0,0 0.05382,-0.487114 0.05382,-1.109817 l 0,-6.407811 -1.834864,0 0,18.072188 1.834864,0 0,-6.522058 c 0,-0.649695 0.05382,-1.272397 0.215904,-1.813496 0.6208,-2.273618 2.617122,-3.869921 4.937613,-3.869921 2.617122,0 2.940664,1.894472 2.940664,4.032502 l 0,8.172973 1.834864,0 0,-8.660087 c 0,-3.355816 -1.187154,-5.277908 -4.532716,-5.277908"
           id="Fill-8"
           inkscape:connector-curvature="0"
           style="fill:#1a1919;fill-rule:evenodd;stroke:none;stroke-width:1" />
      </g>
    </g>
    <path
       d="m 107.104,26.588 c 0,2.144 0.944,3.104 2.768,3.104 1.584,0 2.64,-1.056 2.976,-1.856 l 0.032,0 c 0,0 -0.032,0.256 -0.032,0.592 l 0,1.072 1.504,0 0,-8.096 -1.552,0 0,3.792 c 0,1.6 -0.976,3.056 -2.624,3.056 -1.296,0 -1.52,-0.896 -1.52,-2.016 l 0,-4.832 -1.552,0 0,5.184 z m 9.664,-6.8 1.568,0 0,-1.584 -1.568,0 0,1.584 z m 0.016,9.712 1.552,0 0,-8.096 -1.552,0 0,8.096 z m 8.432,-2.96 c 0,2.704 2.064,3.024 3.104,3.024 0.32,0 0.544,-0.032 0.544,-0.032 l 0,-1.376 c 0,0 -0.144,0.032 -0.368,0.032 -0.592,0 -1.728,-0.208 -1.728,-1.824 l 0,-3.6 1.952,0 0,-1.248 -1.952,0 0,-2.336 -1.504,0 0,2.336 -1.104,0 0,1.248 1.056,0 0,3.776 z m 4.8,-1.104 c 0,2.464 1.952,4.256 4.368,4.256 2.416,0 4.368,-1.792 4.368,-4.256 0,-2.448 -1.952,-4.224 -4.368,-4.224 -2.416,0 -4.368,1.776 -4.368,4.224 l 0,0 z m 1.584,0 c 0,-1.68 1.264,-2.88 2.784,-2.88 1.536,0 2.784,1.2 2.784,2.88 0,1.696 -1.248,2.912 -2.784,2.912 -1.52,0 -2.784,-1.216 -2.784,-2.912 l 0,0 z m 8.4,0 c 0,2.464 1.952,4.256 4.368,4.256 2.416,0 4.368,-1.792 4.368,-4.256 0,-2.448 -1.952,-4.224 -4.368,-4.224 -2.416,0 -4.368,1.776 -4.368,4.224 l 0,0 z m 1.584,0 c 0,-1.68 1.264,-2.88 2.784,-2.88 1.536,0 2.784,1.2 2.784,2.88 0,1.696 -1.248,2.912 -2.784,2.912 -1.52,0 -2.784,-1.216 -2.784,-2.912 l 0,0 z m 8.896,1.856 c 0,2.032 1.296,2.272 2.176,2.272 0.272,0 0.512,-0.032 0.512,-0.032 l 0,-1.376 c 0,0 -0.128,0.016 -0.272,0.016 -0.48,0 -0.864,-0.176 -0.864,-1.152 l 0,-8.816 -1.552,0 0,9.088 z m 4.336,2.208 1.552,0 0,-3.808 1.168,0 2.432,3.808 1.808,0 -2.992,-4.496 0,-0.032 2.688,-3.568 -1.76,0 -2.208,2.976 -1.136,0 0,-6.176 -1.552,0 0,11.296 z m 8.4,-9.712 1.568,0 0,-1.584 -1.568,0 0,1.584 z m 0.016,9.712 1.552,0 0,-8.096 -1.552,0 0,8.096 z m 4.32,-2.96 c 0,2.704 2.064,3.024 3.104,3.024 0.32,0 0.544,-0.032 0.544,-0.032 l 0,-1.376 c 0,0 -0.144,0.032 -0.368,0.032 -0.592,0 -1.728,-0.208 -1.728,-1.824 l 0,-3.6 1.952,0 0,-1.248 -1.952,0 0,-2.336 -1.504,0 0,2.336 -1.104,0 0,1.248 1.056,0 0,3.776 z"
       id="Type-something-22"
       inkscape:connector-curvature="0"
       style="fill:#8f95a7;fill-rule:evenodd;stroke:none;stroke-width:1;fill-opacity:1" />
  </g>
</svg>
