<?xml version="1.0" encoding="UTF-8" standalone="no"?>
<svg width="172px" height="30px" viewBox="0 0 172 30" version="1.1" xmlns="http://www.w3.org/2000/svg" xmlns:xlink="http://www.w3.org/1999/xlink">
    <!-- Generator: sketchtool 39.1 (31721) - http://www.bohemiancoding.com/sketch -->
    <title>3870A039-5AC7-4CAF-B2B0-3E2FC08C8C19</title>
    <desc>Created with sketchtool.</desc>
    <defs></defs>
    <g id="B.1-Shoutem-UI-Toolkit" stroke="none" stroke-width="1" fill="none" fill-rule="evenodd">
        <g id="Shoutem-UI-Toolkit-logotype-in-outlines" fill="#FFFFFF">
            <g id="shoutem_ui_toolkit">
                <g id="logo-shoutem-for-developers">
                    <g id="Imported-Layers">
                        <path d="M1.43497419,26.5163383 C1.43497419,26.5163383 2.94567097,28.166626 5.48206452,28.166626 C6.93894194,28.166626 8.20682581,27.4359547 8.20682581,26.0016042 C8.20682581,23.0249346 0.894903226,23.7556059 0.894903226,19.316966 C0.894903226,16.8813949 3.08021935,15.5550131 5.53588387,15.5550131 C8.39581935,15.5550131 9.71752258,17.0439756 9.71752258,17.0439756 L8.88144516,18.4513339 C8.88144516,18.4513339 7.7212,17.2059285 5.48206452,17.2059285 C4.10591613,17.2059285 2.7835871,17.8016391 2.7835871,19.316966 C2.7835871,22.3212554 10.0955097,21.5089799 10.0955097,26.0016042 C10.0955097,28.221238 8.17991613,29.8175414 5.45452903,29.8175414 C2.1627871,29.8175414 0.436187097,27.8420924 0.436187097,27.8420924 L1.43497419,26.5163383" id="Fill-1"></path>
                        <path d="M32.4374258,15.5550131 C36.4037871,15.5550131 39.6141742,18.5862947 39.6141742,22.6187969 C39.6141742,26.7322755 36.4037871,29.8175414 32.4374258,29.8175414 C28.4710645,29.8175414 25.2606774,26.7322755 25.2606774,22.6187969 C25.2606774,18.5862947 28.4710645,15.5550131 32.4374258,15.5550131 L32.4374258,15.5550131 Z M32.4374258,28.166626 C35.3511806,28.166626 37.7261161,25.785667 37.7261161,22.6187969 C37.7261161,19.533531 35.3511806,17.2329207 32.4374258,17.2329207 C29.523671,17.2329207 27.1493613,19.533531 27.1493613,22.6187969 C27.1493613,25.785667 29.523671,28.166626 32.4374258,28.166626 L32.4374258,28.166626 Z" id="Fill-2"></path>
                        <path d="M41.2337613,15.8801744 L43.0686258,15.8801744 L43.0686258,24.0531473 C43.0686258,26.191177 43.3927935,28.0856495 46.0099161,28.0856495 C49.1126645,28.0856495 51.0282581,25.3525371 51.0282581,22.4022319 L51.0282581,15.8801744 L52.8624968,15.8801744 L52.8624968,29.4930078 L51.0820774,29.4930078 L51.0820774,27.4635745 C51.0820774,26.867864 51.1358968,26.3807498 51.1358968,26.3807498 L51.0820774,26.3807498 C50.5426323,27.7071316 48.7615871,29.8175414 45.7671032,29.8175414 C42.583,29.8175414 41.2337613,28.0856495 41.2337613,24.5402616 L41.2337613,15.8801744" id="Fill-3"></path>
                        <path d="M56.1824,17.4105667 L54.4019806,17.4105667 L54.4019806,15.8682476 L56.2099355,15.8682476 L56.2099355,11.4208195 L58.0172645,11.4208195 L58.0172645,15.8682476 L62.2858903,15.8682476 L62.2858903,17.4105667 L58.0172645,17.4105667 L58.0172645,24.3513165 C58.0172645,27.544551 60.0411226,27.9506888 61.0661935,27.9506888 C61.4441806,27.9506888 61.6869935,27.8960767 61.6869935,27.8960767 L61.6869935,29.5469922 C61.6869935,29.5469922 61.3903613,29.6016042 60.9041097,29.6016042 C59.3395935,29.6016042 56.1824,29.0868701 56.1824,24.5402616 L56.1824,17.4105667" id="Fill-4"></path>
                        <path d="M68.8368323,15.5550131 C72.5872903,15.5550131 74.5035097,18.4513339 74.5035097,21.8341412 C74.5035097,22.1586748 74.4490645,22.7813775 74.4490645,22.7813775 L64.0343935,22.7813775 C64.1151226,26.2721534 66.4900581,28.166626 69.2955484,28.166626 C71.7781226,28.166626 73.4239935,26.5163383 73.4239935,26.5163383 L74.260071,27.9236966 C74.260071,27.9236966 72.2906581,29.8175414 69.241729,29.8175414 C65.1946387,29.8175414 62.1457097,26.8948561 62.1457097,22.700401 C62.1457097,18.234769 65.167729,15.5550131 68.8368323,15.5550131 L68.8368323,15.5550131 Z M72.6417355,21.2654228 C72.533471,18.4243418 70.806871,17.0979599 68.7830129,17.0979599 C66.5169677,17.0979599 64.5475548,18.5323104 64.1151226,21.2654228 L72.6417355,21.2654228 L72.6417355,21.2654228 Z" id="Fill-5"></path>
                        <path d="M76.3928194,15.8801744 L78.2007742,15.8801744 L78.2007742,17.9096077 C78.2007742,18.5053182 78.1469548,18.9924324 78.1469548,18.9924324 L78.2007742,18.9924324 C78.8478581,17.1519442 81.0068903,15.5550131 83.1108516,15.5550131 C85.6203355,15.5550131 86.915129,16.7188143 87.3200258,18.9654403 L87.3738452,18.9654403 C88.1029097,17.124952 90.0723226,15.5550131 92.3659032,15.5550131 C95.6570194,15.5550131 96.8717097,17.4771055 96.8717097,20.8329207 L96.8717097,29.4930078 L95.0368452,29.4930078 L95.0368452,21.2930427 C95.0368452,19.0734089 94.578129,17.2329207 92.0955548,17.2329207 C90.0185032,17.2329207 88.3188129,19.0734089 87.8056516,21.0764778 C87.6166581,21.6715606 87.5634645,22.3212554 87.5634645,23.0519268 L87.5634645,29.4930078 L85.7286,29.4930078 L85.7286,21.2930427 C85.7286,19.2359895 85.4313419,17.2329207 82.8680387,17.2329207 C80.6558129,17.2329207 78.9830323,19.1550131 78.4166774,21.2384307 C78.2815032,21.8071491 78.2276839,22.4292241 78.2276839,23.0519268 L78.2276839,29.4930078 L76.3928194,29.4930078 L76.3928194,15.8801744" id="Fill-6"></path>
                        <path d="M61.7451935,14.0101831 C61.2783419,14.0101831 60.8333935,13.759721 60.5836968,13.3560942 C60.3390065,12.9618832 60.3127226,12.4779076 60.5098516,12.055449 L65.2109097,0.819180471 C65.2171677,0.804115083 65.2240516,0.789049695 65.2309355,0.774612031 C65.4631097,0.303818657 65.9337161,0.0119267655 66.4575161,0.0119267655 C66.8217355,0.0119267655 67.1646774,0.154420227 67.4231355,0.413670445 L73.9340258,6.94451613 C74.2444258,7.2564952 74.3877355,7.70155187 74.3163935,8.13656495 C74.2444258,8.57157803 73.9665677,8.947585 73.5729355,9.14280732 C73.5585419,9.14971229 73.5435226,9.15661726 73.529129,9.16289451 L62.3278194,13.8783609 C62.1419548,13.9656146 61.9460774,14.0101831 61.7451935,14.0101831 L61.7451935,14.0101831 Z M66.5251032,1.73251962 L62.1194258,12.2638535 L72.6185806,7.84404534 L66.5251032,1.73251962 L66.5251032,1.73251962 Z" id="Fill-7"></path>
                        <path d="M19.1077484,15.5550131 C16.0319097,15.5550131 14.2239548,17.6390584 13.7114194,18.9384481 L13.6576,18.9384481 C13.6576,18.9384481 13.7114194,18.4513339 13.7114194,17.8286312 L13.7114194,11.4208195 L11.8765548,11.4208195 L11.8765548,29.4930078 L13.7114194,29.4930078 L13.7114194,22.9709503 C13.7114194,22.3212554 13.7652387,21.6985527 13.9273226,21.1574542 C14.5481226,18.8838361 16.5444452,17.2875327 18.8649355,17.2875327 C21.4820581,17.2875327 21.8056,19.1820052 21.8056,21.3200349 L21.8056,29.4930078 L23.6404645,29.4930078 L23.6404645,20.8329207 C23.6404645,17.4771055 22.4533097,15.5550131 19.1077484,15.5550131" id="Fill-8"></path>
                    </g>
                </g>
                <path d="M107.104,26.588 C107.104,28.732 108.048,29.692 109.872,29.692 C111.456,29.692 112.512,28.636 112.848,27.836 L112.88,27.836 C112.88,27.836 112.848,28.092 112.848,28.428 L112.848,29.5 L114.352,29.5 L114.352,21.404 L112.8,21.404 L112.8,25.196 C112.8,26.796 111.824,28.252 110.176,28.252 C108.88,28.252 108.656,27.356 108.656,26.236 L108.656,21.404 L107.104,21.404 L107.104,26.588 Z M116.768,19.788 L118.336,19.788 L118.336,18.204 L116.768,18.204 L116.768,19.788 Z M116.784,29.5 L118.336,29.5 L118.336,21.404 L116.784,21.404 L116.784,29.5 Z M125.216,26.54 C125.216,29.244 127.28,29.564 128.32,29.564 C128.64,29.564 128.864,29.532 128.864,29.532 L128.864,28.156 C128.864,28.156 128.72,28.188 128.496,28.188 C127.904,28.188 126.768,27.98 126.768,26.364 L126.768,22.764 L128.72,22.764 L128.72,21.516 L126.768,21.516 L126.768,19.18 L125.264,19.18 L125.264,21.516 L124.16,21.516 L124.16,22.764 L125.216,22.764 L125.216,26.54 Z M130.016,25.436 C130.016,27.9 131.968,29.692 134.384,29.692 C136.8,29.692 138.752,27.9 138.752,25.436 C138.752,22.988 136.8,21.212 134.384,21.212 C131.968,21.212 130.016,22.988 130.016,25.436 L130.016,25.436 Z M131.6,25.436 C131.6,23.756 132.864,22.556 134.384,22.556 C135.92,22.556 137.168,23.756 137.168,25.436 C137.168,27.132 135.92,28.348 134.384,28.348 C132.864,28.348 131.6,27.132 131.6,25.436 L131.6,25.436 Z M140,25.436 C140,27.9 141.952,29.692 144.368,29.692 C146.784,29.692 148.736,27.9 148.736,25.436 C148.736,22.988 146.784,21.212 144.368,21.212 C141.952,21.212 140,22.988 140,25.436 L140,25.436 Z M141.584,25.436 C141.584,23.756 142.848,22.556 144.368,22.556 C145.904,22.556 147.152,23.756 147.152,25.436 C147.152,27.132 145.904,28.348 144.368,28.348 C142.848,28.348 141.584,27.132 141.584,25.436 L141.584,25.436 Z M150.48,27.292 C150.48,29.324 151.776,29.564 152.656,29.564 C152.928,29.564 153.168,29.532 153.168,29.532 L153.168,28.156 C153.168,28.156 153.04,28.172 152.896,28.172 C152.416,28.172 152.032,27.996 152.032,27.02 L152.032,18.204 L150.48,18.204 L150.48,27.292 Z M154.816,29.5 L156.368,29.5 L156.368,25.692 L157.536,25.692 L159.968,29.5 L161.776,29.5 L158.784,25.004 L158.784,24.972 L161.472,21.404 L159.712,21.404 L157.504,24.38 L156.368,24.38 L156.368,18.204 L154.816,18.204 L154.816,29.5 Z M163.216,19.788 L164.784,19.788 L164.784,18.204 L163.216,18.204 L163.216,19.788 Z M163.232,29.5 L164.784,29.5 L164.784,21.404 L163.232,21.404 L163.232,29.5 Z M167.552,26.54 C167.552,29.244 169.616,29.564 170.656,29.564 C170.976,29.564 171.2,29.532 171.2,29.532 L171.2,28.156 C171.2,28.156 171.056,28.188 170.832,28.188 C170.24,28.188 169.104,27.98 169.104,26.364 L169.104,22.764 L171.056,22.764 L171.056,21.516 L169.104,21.516 L169.104,19.18 L167.6,19.18 L167.6,21.516 L166.496,21.516 L166.496,22.764 L167.552,22.764 L167.552,26.54 Z" id="Type-something-22"></path>
            </g>
        </g>
    </g>
</svg>